<?xml version="1.0" encoding="utf-8" standalone="no"?>
<!DOCTYPE svg PUBLIC "-//W3C//DTD SVG 1.1//EN"
  "http://www.w3.org/Graphics/SVG/1.1/DTD/svg11.dtd">
<!-- Created with matplotlib (https://matplotlib.org/) -->
<svg height="421.281797pt" version="1.1" viewBox="0 0 944.732375 421.281797" width="944.732375pt" xmlns="http://www.w3.org/2000/svg" xmlns:xlink="http://www.w3.org/1999/xlink">
 <metadata>
  <rdf:RDF xmlns:cc="http://creativecommons.org/ns#" xmlns:dc="http://purl.org/dc/elements/1.1/" xmlns:rdf="http://www.w3.org/1999/02/22-rdf-syntax-ns#">
   <cc:Work>
    <dc:type rdf:resource="http://purl.org/dc/dcmitype/StillImage"/>
    <dc:date>2020-11-10T08:03:52.614214</dc:date>
    <dc:format>image/svg+xml</dc:format>
    <dc:creator>
     <cc:Agent>
      <dc:title>Matplotlib v3.3.2, https://matplotlib.org/</dc:title>
     </cc:Agent>
    </dc:creator>
   </cc:Work>
  </rdf:RDF>
 </metadata>
 <defs>
  <style type="text/css">*{stroke-linecap:butt;stroke-linejoin:round;}</style>
 </defs>
 <g id="figure_1">
  <g id="patch_1">
   <path d="M 0 421.281797 
L 944.732375 421.281797 
L 944.732375 0 
L 0 0 
z
" style="fill:#ffffff;"/>
  </g>
  <g id="axes_1">
   <g id="patch_2">
    <path d="M 46.964375 282.936797 
L 716.564375 282.936797 
L 716.564375 11.136797 
L 46.964375 11.136797 
z
" style="fill:#ffffff;"/>
   </g>
   <g id="matplotlib.axis_1">
    <g id="xtick_1">
     <g id="line2d_1">
      <defs>
       <path d="M 0 0 
L 0 6 
" id="mb1264dacd3" style="stroke:#262626;stroke-width:1.25;"/>
      </defs>
      <g>
       <use style="fill:#262626;stroke:#262626;stroke-width:1.25;" x="88.814375" xlink:href="#mb1264dacd3" y="282.936797"/>
      </g>
     </g>
     <g id="text_1">
      <!-- Endocrine -->
      <g style="fill:#262626;" transform="translate(91.658047 341.966016)rotate(-90)scale(0.11 -0.11)">
       <defs>
        <path d="M 7.90625 0 
L 7.90625 71.578125 
L 59.671875 71.578125 
L 59.671875 63.140625 
L 17.390625 63.140625 
L 17.390625 41.21875 
L 56.984375 41.21875 
L 56.984375 32.8125 
L 17.390625 32.8125 
L 17.390625 8.453125 
L 61.328125 8.453125 
L 61.328125 0 
z
" id="ArialMT-69"/>
        <path d="M 6.59375 0 
L 6.59375 51.859375 
L 14.5 51.859375 
L 14.5 44.484375 
Q 20.21875 53.03125 31 53.03125 
Q 35.6875 53.03125 39.625 51.34375 
Q 43.5625 49.65625 45.515625 46.921875 
Q 47.46875 44.1875 48.25 40.4375 
Q 48.734375 37.984375 48.734375 31.890625 
L 48.734375 0 
L 39.9375 0 
L 39.9375 31.546875 
Q 39.9375 36.921875 38.90625 39.578125 
Q 37.890625 42.234375 35.28125 43.8125 
Q 32.671875 45.40625 29.15625 45.40625 
Q 23.53125 45.40625 19.453125 41.84375 
Q 15.375 38.28125 15.375 28.328125 
L 15.375 0 
z
" id="ArialMT-110"/>
        <path d="M 40.234375 0 
L 40.234375 6.546875 
Q 35.296875 -1.171875 25.734375 -1.171875 
Q 19.53125 -1.171875 14.328125 2.25 
Q 9.125 5.671875 6.265625 11.796875 
Q 3.421875 17.921875 3.421875 25.875 
Q 3.421875 33.640625 6 39.96875 
Q 8.59375 46.296875 13.765625 49.65625 
Q 18.953125 53.03125 25.34375 53.03125 
Q 30.03125 53.03125 33.6875 51.046875 
Q 37.359375 49.078125 39.65625 45.90625 
L 39.65625 71.578125 
L 48.390625 71.578125 
L 48.390625 0 
z
M 12.453125 25.875 
Q 12.453125 15.921875 16.640625 10.984375 
Q 20.84375 6.0625 26.5625 6.0625 
Q 32.328125 6.0625 36.34375 10.765625 
Q 40.375 15.484375 40.375 25.140625 
Q 40.375 35.796875 36.265625 40.765625 
Q 32.171875 45.75 26.171875 45.75 
Q 20.3125 45.75 16.375 40.96875 
Q 12.453125 36.1875 12.453125 25.875 
z
" id="ArialMT-100"/>
        <path d="M 3.328125 25.921875 
Q 3.328125 40.328125 11.328125 47.265625 
Q 18.015625 53.03125 27.640625 53.03125 
Q 38.328125 53.03125 45.109375 46.015625 
Q 51.90625 39.015625 51.90625 26.65625 
Q 51.90625 16.65625 48.90625 10.90625 
Q 45.90625 5.171875 40.15625 2 
Q 34.421875 -1.171875 27.640625 -1.171875 
Q 16.75 -1.171875 10.03125 5.8125 
Q 3.328125 12.796875 3.328125 25.921875 
z
M 12.359375 25.921875 
Q 12.359375 15.96875 16.703125 11.015625 
Q 21.046875 6.0625 27.640625 6.0625 
Q 34.1875 6.0625 38.53125 11.03125 
Q 42.875 16.015625 42.875 26.21875 
Q 42.875 35.84375 38.5 40.796875 
Q 34.125 45.75 27.640625 45.75 
Q 21.046875 45.75 16.703125 40.8125 
Q 12.359375 35.890625 12.359375 25.921875 
z
" id="ArialMT-111"/>
        <path d="M 40.4375 19 
L 49.078125 17.875 
Q 47.65625 8.9375 41.8125 3.875 
Q 35.984375 -1.171875 27.484375 -1.171875 
Q 16.84375 -1.171875 10.375 5.78125 
Q 3.90625 12.75 3.90625 25.734375 
Q 3.90625 34.125 6.6875 40.421875 
Q 9.46875 46.734375 15.15625 49.875 
Q 20.84375 53.03125 27.546875 53.03125 
Q 35.984375 53.03125 41.359375 48.75 
Q 46.734375 44.484375 48.25 36.625 
L 39.703125 35.296875 
Q 38.484375 40.53125 35.375 43.15625 
Q 32.28125 45.796875 27.875 45.796875 
Q 21.234375 45.796875 17.078125 41.03125 
Q 12.9375 36.28125 12.9375 25.984375 
Q 12.9375 15.53125 16.9375 10.796875 
Q 20.953125 6.0625 27.390625 6.0625 
Q 32.5625 6.0625 36.03125 9.234375 
Q 39.5 12.40625 40.4375 19 
z
" id="ArialMT-99"/>
        <path d="M 6.5 0 
L 6.5 51.859375 
L 14.40625 51.859375 
L 14.40625 44 
Q 17.4375 49.515625 20 51.265625 
Q 22.5625 53.03125 25.640625 53.03125 
Q 30.078125 53.03125 34.671875 50.203125 
L 31.640625 42.046875 
Q 28.421875 43.953125 25.203125 43.953125 
Q 22.3125 43.953125 20.015625 42.21875 
Q 17.71875 40.484375 16.75 37.40625 
Q 15.28125 32.71875 15.28125 27.15625 
L 15.28125 0 
z
" id="ArialMT-114"/>
        <path d="M 6.640625 61.46875 
L 6.640625 71.578125 
L 15.4375 71.578125 
L 15.4375 61.46875 
z
M 6.640625 0 
L 6.640625 51.859375 
L 15.4375 51.859375 
L 15.4375 0 
z
" id="ArialMT-105"/>
        <path d="M 42.09375 16.703125 
L 51.171875 15.578125 
Q 49.03125 7.625 43.21875 3.21875 
Q 37.40625 -1.171875 28.375 -1.171875 
Q 17 -1.171875 10.328125 5.828125 
Q 3.65625 12.84375 3.65625 25.484375 
Q 3.65625 38.578125 10.390625 45.796875 
Q 17.140625 53.03125 27.875 53.03125 
Q 38.28125 53.03125 44.875 45.953125 
Q 51.46875 38.875 51.46875 26.03125 
Q 51.46875 25.25 51.421875 23.6875 
L 12.75 23.6875 
Q 13.234375 15.140625 17.578125 10.59375 
Q 21.921875 6.0625 28.421875 6.0625 
Q 33.25 6.0625 36.671875 8.59375 
Q 40.09375 11.140625 42.09375 16.703125 
z
M 13.234375 30.90625 
L 42.1875 30.90625 
Q 41.609375 37.453125 38.875 40.71875 
Q 34.671875 45.796875 27.984375 45.796875 
Q 21.921875 45.796875 17.796875 41.75 
Q 13.671875 37.703125 13.234375 30.90625 
z
" id="ArialMT-101"/>
       </defs>
       <use xlink:href="#ArialMT-69"/>
       <use x="66.699219" xlink:href="#ArialMT-110"/>
       <use x="122.314453" xlink:href="#ArialMT-100"/>
       <use x="177.929688" xlink:href="#ArialMT-111"/>
       <use x="233.544922" xlink:href="#ArialMT-99"/>
       <use x="283.544922" xlink:href="#ArialMT-114"/>
       <use x="316.845703" xlink:href="#ArialMT-105"/>
       <use x="339.0625" xlink:href="#ArialMT-110"/>
       <use x="394.677734" xlink:href="#ArialMT-101"/>
      </g>
     </g>
    </g>
    <g id="xtick_2">
     <g id="line2d_2">
      <g>
       <use style="fill:#262626;stroke:#262626;stroke-width:1.25;" x="172.514375" xlink:href="#mb1264dacd3" y="282.936797"/>
      </g>
     </g>
     <g id="text_2">
      <!-- Enterocyte -->
      <g style="fill:#262626;" transform="translate(175.293594 345.016797)rotate(-90)scale(0.11 -0.11)">
       <defs>
        <path d="M 25.78125 7.859375 
L 27.046875 0.09375 
Q 23.34375 -0.6875 20.40625 -0.6875 
Q 15.625 -0.6875 12.984375 0.828125 
Q 10.359375 2.34375 9.28125 4.8125 
Q 8.203125 7.28125 8.203125 15.1875 
L 8.203125 45.015625 
L 1.765625 45.015625 
L 1.765625 51.859375 
L 8.203125 51.859375 
L 8.203125 64.703125 
L 16.9375 69.96875 
L 16.9375 51.859375 
L 25.78125 51.859375 
L 25.78125 45.015625 
L 16.9375 45.015625 
L 16.9375 14.703125 
Q 16.9375 10.9375 17.40625 9.859375 
Q 17.875 8.796875 18.921875 8.15625 
Q 19.96875 7.515625 21.921875 7.515625 
Q 23.390625 7.515625 25.78125 7.859375 
z
" id="ArialMT-116"/>
        <path d="M 6.203125 -19.96875 
L 5.21875 -11.71875 
Q 8.109375 -12.5 10.25 -12.5 
Q 13.1875 -12.5 14.9375 -11.515625 
Q 16.703125 -10.546875 17.828125 -8.796875 
Q 18.65625 -7.46875 20.515625 -2.25 
Q 20.75 -1.515625 21.296875 -0.09375 
L 1.609375 51.859375 
L 11.078125 51.859375 
L 21.875 21.828125 
Q 23.96875 16.109375 25.640625 9.8125 
Q 27.15625 15.875 29.25 21.625 
L 40.328125 51.859375 
L 49.125 51.859375 
L 29.390625 -0.875 
Q 26.21875 -9.421875 24.46875 -12.640625 
Q 22.125 -17 19.09375 -19.015625 
Q 16.0625 -21.046875 11.859375 -21.046875 
Q 9.328125 -21.046875 6.203125 -19.96875 
z
" id="ArialMT-121"/>
       </defs>
       <use xlink:href="#ArialMT-69"/>
       <use x="66.699219" xlink:href="#ArialMT-110"/>
       <use x="122.314453" xlink:href="#ArialMT-116"/>
       <use x="150.097656" xlink:href="#ArialMT-101"/>
       <use x="205.712891" xlink:href="#ArialMT-114"/>
       <use x="239.013672" xlink:href="#ArialMT-111"/>
       <use x="294.628906" xlink:href="#ArialMT-99"/>
       <use x="344.628906" xlink:href="#ArialMT-121"/>
       <use x="394.628906" xlink:href="#ArialMT-116"/>
       <use x="422.412109" xlink:href="#ArialMT-101"/>
      </g>
     </g>
    </g>
    <g id="xtick_3">
     <g id="line2d_3">
      <g>
       <use style="fill:#262626;stroke:#262626;stroke-width:1.25;" x="256.214375" xlink:href="#mb1264dacd3" y="282.936797"/>
      </g>
     </g>
     <g id="text_3">
      <!-- Enterocyte.Progenitor -->
      <g style="fill:#262626;" transform="translate(258.993594 398.820547)rotate(-90)scale(0.11 -0.11)">
       <defs>
        <path d="M 9.078125 0 
L 9.078125 10.015625 
L 19.09375 10.015625 
L 19.09375 0 
z
" id="ArialMT-46"/>
        <path d="M 7.71875 0 
L 7.71875 71.578125 
L 34.71875 71.578125 
Q 41.84375 71.578125 45.609375 70.90625 
Q 50.875 70.015625 54.4375 67.546875 
Q 58.015625 65.09375 60.1875 60.640625 
Q 62.359375 56.203125 62.359375 50.875 
Q 62.359375 41.75 56.546875 35.421875 
Q 50.734375 29.109375 35.546875 29.109375 
L 17.1875 29.109375 
L 17.1875 0 
z
M 17.1875 37.546875 
L 35.6875 37.546875 
Q 44.875 37.546875 48.734375 40.96875 
Q 52.59375 44.390625 52.59375 50.59375 
Q 52.59375 55.078125 50.3125 58.265625 
Q 48.046875 61.46875 44.34375 62.5 
Q 41.9375 63.140625 35.5 63.140625 
L 17.1875 63.140625 
z
" id="ArialMT-80"/>
        <path d="M 4.984375 -4.296875 
L 13.53125 -5.5625 
Q 14.0625 -9.515625 16.5 -11.328125 
Q 19.78125 -13.765625 25.4375 -13.765625 
Q 31.546875 -13.765625 34.859375 -11.328125 
Q 38.1875 -8.890625 39.359375 -4.5 
Q 40.046875 -1.8125 39.984375 6.78125 
Q 34.234375 0 25.640625 0 
Q 14.9375 0 9.078125 7.71875 
Q 3.21875 15.4375 3.21875 26.21875 
Q 3.21875 33.640625 5.90625 39.90625 
Q 8.59375 46.1875 13.6875 49.609375 
Q 18.796875 53.03125 25.6875 53.03125 
Q 34.859375 53.03125 40.828125 45.609375 
L 40.828125 51.859375 
L 48.921875 51.859375 
L 48.921875 7.03125 
Q 48.921875 -5.078125 46.453125 -10.125 
Q 44 -15.1875 38.640625 -18.109375 
Q 33.296875 -21.046875 25.484375 -21.046875 
Q 16.21875 -21.046875 10.5 -16.875 
Q 4.78125 -12.703125 4.984375 -4.296875 
z
M 12.25 26.859375 
Q 12.25 16.65625 16.296875 11.96875 
Q 20.359375 7.28125 26.46875 7.28125 
Q 32.515625 7.28125 36.609375 11.9375 
Q 40.71875 16.609375 40.71875 26.5625 
Q 40.71875 36.078125 36.5 40.90625 
Q 32.28125 45.75 26.3125 45.75 
Q 20.453125 45.75 16.34375 40.984375 
Q 12.25 36.234375 12.25 26.859375 
z
" id="ArialMT-103"/>
       </defs>
       <use xlink:href="#ArialMT-69"/>
       <use x="66.699219" xlink:href="#ArialMT-110"/>
       <use x="122.314453" xlink:href="#ArialMT-116"/>
       <use x="150.097656" xlink:href="#ArialMT-101"/>
       <use x="205.712891" xlink:href="#ArialMT-114"/>
       <use x="239.013672" xlink:href="#ArialMT-111"/>
       <use x="294.628906" xlink:href="#ArialMT-99"/>
       <use x="344.628906" xlink:href="#ArialMT-121"/>
       <use x="394.628906" xlink:href="#ArialMT-116"/>
       <use x="422.412109" xlink:href="#ArialMT-101"/>
       <use x="478.027344" xlink:href="#ArialMT-46"/>
       <use x="505.810547" xlink:href="#ArialMT-80"/>
       <use x="572.509766" xlink:href="#ArialMT-114"/>
       <use x="605.810547" xlink:href="#ArialMT-111"/>
       <use x="661.425781" xlink:href="#ArialMT-103"/>
       <use x="717.041016" xlink:href="#ArialMT-101"/>
       <use x="772.65625" xlink:href="#ArialMT-110"/>
       <use x="828.271484" xlink:href="#ArialMT-105"/>
       <use x="850.488281" xlink:href="#ArialMT-116"/>
       <use x="878.271484" xlink:href="#ArialMT-111"/>
       <use x="933.886719" xlink:href="#ArialMT-114"/>
      </g>
     </g>
    </g>
    <g id="xtick_4">
     <g id="line2d_4">
      <g>
       <use style="fill:#262626;stroke:#262626;stroke-width:1.25;" x="339.914375" xlink:href="#mb1264dacd3" y="282.936797"/>
      </g>
     </g>
     <g id="text_4">
      <!-- Goblet -->
      <g style="fill:#262626;" transform="translate(342.758047 324.843828)rotate(-90)scale(0.11 -0.11)">
       <defs>
        <path d="M 41.21875 28.078125 
L 41.21875 36.46875 
L 71.53125 36.53125 
L 71.53125 9.96875 
Q 64.546875 4.390625 57.125 1.578125 
Q 49.703125 -1.21875 41.890625 -1.21875 
Q 31.34375 -1.21875 22.71875 3.296875 
Q 14.109375 7.8125 9.71875 16.359375 
Q 5.328125 24.90625 5.328125 35.453125 
Q 5.328125 45.90625 9.6875 54.953125 
Q 14.0625 64.015625 22.265625 68.40625 
Q 30.46875 72.796875 41.15625 72.796875 
Q 48.921875 72.796875 55.1875 70.28125 
Q 61.46875 67.78125 65.03125 63.28125 
Q 68.609375 58.796875 70.453125 51.5625 
L 61.921875 49.21875 
Q 60.296875 54.6875 57.90625 57.8125 
Q 55.515625 60.9375 51.0625 62.8125 
Q 46.625 64.703125 41.21875 64.703125 
Q 34.71875 64.703125 29.984375 62.71875 
Q 25.25 60.75 22.34375 57.515625 
Q 19.4375 54.296875 17.828125 50.4375 
Q 15.09375 43.796875 15.09375 36.03125 
Q 15.09375 26.46875 18.390625 20.015625 
Q 21.6875 13.578125 27.984375 10.453125 
Q 34.28125 7.328125 41.359375 7.328125 
Q 47.515625 7.328125 53.375 9.6875 
Q 59.234375 12.0625 62.25 14.75 
L 62.25 28.078125 
z
" id="ArialMT-71"/>
        <path d="M 14.703125 0 
L 6.546875 0 
L 6.546875 71.578125 
L 15.328125 71.578125 
L 15.328125 46.046875 
Q 20.90625 53.03125 29.546875 53.03125 
Q 34.328125 53.03125 38.59375 51.09375 
Q 42.875 49.171875 45.625 45.671875 
Q 48.390625 42.1875 49.953125 37.25 
Q 51.515625 32.328125 51.515625 26.703125 
Q 51.515625 13.375 44.921875 6.09375 
Q 38.328125 -1.171875 29.109375 -1.171875 
Q 19.921875 -1.171875 14.703125 6.5 
z
M 14.59375 26.3125 
Q 14.59375 17 17.140625 12.84375 
Q 21.296875 6.0625 28.375 6.0625 
Q 34.125 6.0625 38.328125 11.0625 
Q 42.53125 16.0625 42.53125 25.984375 
Q 42.53125 36.140625 38.5 40.96875 
Q 34.46875 45.796875 28.765625 45.796875 
Q 23 45.796875 18.796875 40.796875 
Q 14.59375 35.796875 14.59375 26.3125 
z
" id="ArialMT-98"/>
        <path d="M 6.390625 0 
L 6.390625 71.578125 
L 15.1875 71.578125 
L 15.1875 0 
z
" id="ArialMT-108"/>
       </defs>
       <use xlink:href="#ArialMT-71"/>
       <use x="77.783203" xlink:href="#ArialMT-111"/>
       <use x="133.398438" xlink:href="#ArialMT-98"/>
       <use x="189.013672" xlink:href="#ArialMT-108"/>
       <use x="211.230469" xlink:href="#ArialMT-101"/>
       <use x="266.845703" xlink:href="#ArialMT-116"/>
      </g>
     </g>
    </g>
    <g id="xtick_5">
     <g id="line2d_5">
      <g>
       <use style="fill:#262626;stroke:#262626;stroke-width:1.25;" x="423.614375" xlink:href="#mb1264dacd3" y="282.936797"/>
      </g>
     </g>
     <g id="text_5">
      <!-- Stem -->
      <g style="fill:#262626;" transform="translate(426.458047 318.109766)rotate(-90)scale(0.11 -0.11)">
       <defs>
        <path d="M 4.5 23 
L 13.421875 23.78125 
Q 14.0625 18.40625 16.375 14.96875 
Q 18.703125 11.53125 23.578125 9.40625 
Q 28.46875 7.28125 34.578125 7.28125 
Q 39.984375 7.28125 44.140625 8.890625 
Q 48.296875 10.5 50.3125 13.296875 
Q 52.34375 16.109375 52.34375 19.4375 
Q 52.34375 22.796875 50.390625 25.3125 
Q 48.4375 27.828125 43.953125 29.546875 
Q 41.0625 30.671875 31.203125 33.03125 
Q 21.34375 35.40625 17.390625 37.5 
Q 12.25 40.1875 9.734375 44.15625 
Q 7.234375 48.140625 7.234375 53.078125 
Q 7.234375 58.5 10.296875 63.203125 
Q 13.375 67.921875 19.28125 70.359375 
Q 25.203125 72.796875 32.421875 72.796875 
Q 40.375 72.796875 46.453125 70.234375 
Q 52.546875 67.671875 55.8125 62.6875 
Q 59.078125 57.71875 59.328125 51.421875 
L 50.25 50.734375 
Q 49.515625 57.515625 45.28125 60.984375 
Q 41.0625 64.453125 32.8125 64.453125 
Q 24.21875 64.453125 20.28125 61.296875 
Q 16.359375 58.15625 16.359375 53.71875 
Q 16.359375 49.859375 19.140625 47.359375 
Q 21.875 44.875 33.421875 42.265625 
Q 44.96875 39.65625 49.265625 37.703125 
Q 55.515625 34.8125 58.484375 30.390625 
Q 61.46875 25.984375 61.46875 20.21875 
Q 61.46875 14.5 58.203125 9.4375 
Q 54.9375 4.390625 48.796875 1.578125 
Q 42.671875 -1.21875 35.015625 -1.21875 
Q 25.296875 -1.21875 18.71875 1.609375 
Q 12.15625 4.4375 8.421875 10.125 
Q 4.6875 15.828125 4.5 23 
z
" id="ArialMT-83"/>
        <path d="M 6.59375 0 
L 6.59375 51.859375 
L 14.453125 51.859375 
L 14.453125 44.578125 
Q 16.890625 48.390625 20.9375 50.703125 
Q 25 53.03125 30.171875 53.03125 
Q 35.9375 53.03125 39.625 50.640625 
Q 43.3125 48.25 44.828125 43.953125 
Q 50.984375 53.03125 60.84375 53.03125 
Q 68.5625 53.03125 72.703125 48.75 
Q 76.859375 44.484375 76.859375 35.59375 
L 76.859375 0 
L 68.109375 0 
L 68.109375 32.671875 
Q 68.109375 37.9375 67.25 40.25 
Q 66.40625 42.578125 64.15625 43.984375 
Q 61.921875 45.40625 58.890625 45.40625 
Q 53.421875 45.40625 49.796875 41.765625 
Q 46.1875 38.140625 46.1875 30.125 
L 46.1875 0 
L 37.40625 0 
L 37.40625 33.6875 
Q 37.40625 39.546875 35.25 42.46875 
Q 33.109375 45.40625 28.21875 45.40625 
Q 24.515625 45.40625 21.359375 43.453125 
Q 18.21875 41.5 16.796875 37.734375 
Q 15.375 33.984375 15.375 26.90625 
L 15.375 0 
z
" id="ArialMT-109"/>
       </defs>
       <use xlink:href="#ArialMT-83"/>
       <use x="66.699219" xlink:href="#ArialMT-116"/>
       <use x="94.482422" xlink:href="#ArialMT-101"/>
       <use x="150.097656" xlink:href="#ArialMT-109"/>
      </g>
     </g>
    </g>
    <g id="xtick_6">
     <g id="line2d_6">
      <g>
       <use style="fill:#262626;stroke:#262626;stroke-width:1.25;" x="507.314375" xlink:href="#mb1264dacd3" y="282.936797"/>
      </g>
     </g>
     <g id="text_6">
      <!-- TA -->
      <g style="fill:#262626;" transform="translate(510.158047 305.681484)rotate(-90)scale(0.11 -0.11)">
       <defs>
        <path d="M 25.921875 0 
L 25.921875 63.140625 
L 2.34375 63.140625 
L 2.34375 71.578125 
L 59.078125 71.578125 
L 59.078125 63.140625 
L 35.40625 63.140625 
L 35.40625 0 
z
" id="ArialMT-84"/>
        <path d="M -0.140625 0 
L 27.34375 71.578125 
L 37.546875 71.578125 
L 66.84375 0 
L 56.0625 0 
L 47.703125 21.6875 
L 17.78125 21.6875 
L 9.90625 0 
z
M 20.515625 29.390625 
L 44.78125 29.390625 
L 37.3125 49.21875 
Q 33.890625 58.25 32.234375 64.0625 
Q 30.859375 57.171875 28.375 50.390625 
z
" id="ArialMT-65"/>
       </defs>
       <use xlink:href="#ArialMT-84"/>
       <use x="53.708984" xlink:href="#ArialMT-65"/>
      </g>
     </g>
    </g>
    <g id="xtick_7">
     <g id="line2d_7">
      <g>
       <use style="fill:#262626;stroke:#262626;stroke-width:1.25;" x="591.014375" xlink:href="#mb1264dacd3" y="282.936797"/>
      </g>
     </g>
     <g id="text_7">
      <!-- TA.Early -->
      <g style="fill:#262626;" transform="translate(593.793594 333.798516)rotate(-90)scale(0.11 -0.11)">
       <defs>
        <path d="M 40.4375 6.390625 
Q 35.546875 2.25 31.03125 0.53125 
Q 26.515625 -1.171875 21.34375 -1.171875 
Q 12.796875 -1.171875 8.203125 3 
Q 3.609375 7.171875 3.609375 13.671875 
Q 3.609375 17.484375 5.34375 20.625 
Q 7.078125 23.78125 9.890625 25.6875 
Q 12.703125 27.59375 16.21875 28.5625 
Q 18.796875 29.25 24.03125 29.890625 
Q 34.671875 31.15625 39.703125 32.90625 
Q 39.75 34.71875 39.75 35.203125 
Q 39.75 40.578125 37.25 42.78125 
Q 33.890625 45.75 27.25 45.75 
Q 21.046875 45.75 18.09375 43.578125 
Q 15.140625 41.40625 13.71875 35.890625 
L 5.125 37.0625 
Q 6.296875 42.578125 8.984375 45.96875 
Q 11.671875 49.359375 16.75 51.1875 
Q 21.828125 53.03125 28.515625 53.03125 
Q 35.15625 53.03125 39.296875 51.46875 
Q 43.453125 49.90625 45.40625 47.53125 
Q 47.359375 45.171875 48.140625 41.546875 
Q 48.578125 39.3125 48.578125 33.453125 
L 48.578125 21.734375 
Q 48.578125 9.46875 49.140625 6.21875 
Q 49.703125 2.984375 51.375 0 
L 42.1875 0 
Q 40.828125 2.734375 40.4375 6.390625 
z
M 39.703125 26.03125 
Q 34.90625 24.078125 25.34375 22.703125 
Q 19.921875 21.921875 17.671875 20.9375 
Q 15.4375 19.96875 14.203125 18.09375 
Q 12.984375 16.21875 12.984375 13.921875 
Q 12.984375 10.40625 15.640625 8.0625 
Q 18.3125 5.71875 23.4375 5.71875 
Q 28.515625 5.71875 32.46875 7.9375 
Q 36.421875 10.15625 38.28125 14.015625 
Q 39.703125 17 39.703125 22.796875 
z
" id="ArialMT-97"/>
       </defs>
       <use xlink:href="#ArialMT-84"/>
       <use x="53.708984" xlink:href="#ArialMT-65"/>
       <use x="120.408203" xlink:href="#ArialMT-46"/>
       <use x="148.191406" xlink:href="#ArialMT-69"/>
       <use x="214.890625" xlink:href="#ArialMT-97"/>
       <use x="270.505859" xlink:href="#ArialMT-114"/>
       <use x="303.806641" xlink:href="#ArialMT-108"/>
       <use x="326.023438" xlink:href="#ArialMT-121"/>
      </g>
     </g>
    </g>
    <g id="xtick_8">
     <g id="line2d_8">
      <g>
       <use style="fill:#262626;stroke:#262626;stroke-width:1.25;" x="674.714375" xlink:href="#mb1264dacd3" y="282.936797"/>
      </g>
     </g>
     <g id="text_8">
      <!-- Tuft -->
      <g style="fill:#262626;" transform="translate(677.558047 310.971797)rotate(-90)scale(0.11 -0.11)">
       <defs>
        <path d="M 40.578125 0 
L 40.578125 7.625 
Q 34.515625 -1.171875 24.125 -1.171875 
Q 19.53125 -1.171875 15.546875 0.578125 
Q 11.578125 2.34375 9.640625 5 
Q 7.71875 7.671875 6.9375 11.53125 
Q 6.390625 14.109375 6.390625 19.734375 
L 6.390625 51.859375 
L 15.1875 51.859375 
L 15.1875 23.09375 
Q 15.1875 16.21875 15.71875 13.8125 
Q 16.546875 10.359375 19.234375 8.375 
Q 21.921875 6.390625 25.875 6.390625 
Q 29.828125 6.390625 33.296875 8.421875 
Q 36.765625 10.453125 38.203125 13.9375 
Q 39.65625 17.4375 39.65625 24.078125 
L 39.65625 51.859375 
L 48.4375 51.859375 
L 48.4375 0 
z
" id="ArialMT-117"/>
        <path d="M 8.6875 0 
L 8.6875 45.015625 
L 0.921875 45.015625 
L 0.921875 51.859375 
L 8.6875 51.859375 
L 8.6875 57.375 
Q 8.6875 62.59375 9.625 65.140625 
Q 10.890625 68.5625 14.078125 70.671875 
Q 17.28125 72.796875 23.046875 72.796875 
Q 26.765625 72.796875 31.25 71.921875 
L 29.9375 64.265625 
Q 27.203125 64.75 24.75 64.75 
Q 20.75 64.75 19.09375 63.03125 
Q 17.4375 61.328125 17.4375 56.640625 
L 17.4375 51.859375 
L 27.546875 51.859375 
L 27.546875 45.015625 
L 17.4375 45.015625 
L 17.4375 0 
z
" id="ArialMT-102"/>
       </defs>
       <use xlink:href="#ArialMT-84"/>
       <use x="57.333984" xlink:href="#ArialMT-117"/>
       <use x="112.949219" xlink:href="#ArialMT-102"/>
       <use x="140.732422" xlink:href="#ArialMT-116"/>
      </g>
     </g>
    </g>
    <g id="text_9">
     <!-- Cell type -->
     <g style="fill:#262626;" transform="translate(358.421563 411.556172)scale(0.12 -0.12)">
      <defs>
       <path d="M 58.796875 25.09375 
L 68.265625 22.703125 
Q 65.28125 11.03125 57.546875 4.90625 
Q 49.8125 -1.21875 38.625 -1.21875 
Q 27.046875 -1.21875 19.796875 3.484375 
Q 12.546875 8.203125 8.765625 17.140625 
Q 4.984375 26.078125 4.984375 36.328125 
Q 4.984375 47.515625 9.25 55.828125 
Q 13.53125 64.15625 21.40625 68.46875 
Q 29.296875 72.796875 38.765625 72.796875 
Q 49.515625 72.796875 56.828125 67.328125 
Q 64.15625 61.859375 67.046875 51.953125 
L 57.71875 49.75 
Q 55.21875 57.5625 50.484375 61.125 
Q 45.75 64.703125 38.578125 64.703125 
Q 30.328125 64.703125 24.78125 60.734375 
Q 19.234375 56.78125 16.984375 50.109375 
Q 14.75 43.453125 14.75 36.375 
Q 14.75 27.25 17.40625 20.4375 
Q 20.0625 13.625 25.671875 10.25 
Q 31.296875 6.890625 37.84375 6.890625 
Q 45.796875 6.890625 51.3125 11.46875 
Q 56.84375 16.0625 58.796875 25.09375 
z
" id="ArialMT-67"/>
       <path id="ArialMT-32"/>
       <path d="M 6.59375 -19.875 
L 6.59375 51.859375 
L 14.59375 51.859375 
L 14.59375 45.125 
Q 17.4375 49.078125 21 51.046875 
Q 24.5625 53.03125 29.640625 53.03125 
Q 36.28125 53.03125 41.359375 49.609375 
Q 46.4375 46.1875 49.015625 39.953125 
Q 51.609375 33.734375 51.609375 26.3125 
Q 51.609375 18.359375 48.75 11.984375 
Q 45.90625 5.609375 40.453125 2.21875 
Q 35.015625 -1.171875 29 -1.171875 
Q 24.609375 -1.171875 21.109375 0.6875 
Q 17.625 2.546875 15.375 5.375 
L 15.375 -19.875 
z
M 14.546875 25.640625 
Q 14.546875 15.625 18.59375 10.84375 
Q 22.65625 6.0625 28.421875 6.0625 
Q 34.28125 6.0625 38.453125 11.015625 
Q 42.625 15.96875 42.625 26.375 
Q 42.625 36.28125 38.546875 41.203125 
Q 34.46875 46.140625 28.8125 46.140625 
Q 23.1875 46.140625 18.859375 40.890625 
Q 14.546875 35.640625 14.546875 25.640625 
z
" id="ArialMT-112"/>
      </defs>
      <use xlink:href="#ArialMT-67"/>
      <use x="72.216797" xlink:href="#ArialMT-101"/>
      <use x="127.832031" xlink:href="#ArialMT-108"/>
      <use x="150.048828" xlink:href="#ArialMT-108"/>
      <use x="172.265625" xlink:href="#ArialMT-32"/>
      <use x="200.048828" xlink:href="#ArialMT-116"/>
      <use x="227.832031" xlink:href="#ArialMT-121"/>
      <use x="277.832031" xlink:href="#ArialMT-112"/>
      <use x="333.447266" xlink:href="#ArialMT-101"/>
     </g>
    </g>
   </g>
   <g id="matplotlib.axis_2">
    <g id="ytick_1">
     <g id="line2d_9">
      <defs>
       <path d="M 0 0 
L -6 0 
" id="mee0ffe1527" style="stroke:#262626;stroke-width:1.25;"/>
      </defs>
      <g>
       <use style="fill:#262626;stroke:#262626;stroke-width:1.25;" x="46.964375" xlink:href="#mee0ffe1527" y="282.936797"/>
      </g>
     </g>
     <g id="text_10">
      <!-- 0.0 -->
      <g style="fill:#262626;" transform="translate(22.174375 286.873594)scale(0.11 -0.11)">
       <defs>
        <path d="M 4.15625 35.296875 
Q 4.15625 48 6.765625 55.734375 
Q 9.375 63.484375 14.515625 67.671875 
Q 19.671875 71.875 27.484375 71.875 
Q 33.25 71.875 37.59375 69.546875 
Q 41.9375 67.234375 44.765625 62.859375 
Q 47.609375 58.5 49.21875 52.21875 
Q 50.828125 45.953125 50.828125 35.296875 
Q 50.828125 22.703125 48.234375 14.96875 
Q 45.65625 7.234375 40.5 3 
Q 35.359375 -1.21875 27.484375 -1.21875 
Q 17.140625 -1.21875 11.234375 6.203125 
Q 4.15625 15.140625 4.15625 35.296875 
z
M 13.1875 35.296875 
Q 13.1875 17.671875 17.3125 11.828125 
Q 21.4375 6 27.484375 6 
Q 33.546875 6 37.671875 11.859375 
Q 41.796875 17.71875 41.796875 35.296875 
Q 41.796875 52.984375 37.671875 58.78125 
Q 33.546875 64.59375 27.390625 64.59375 
Q 21.34375 64.59375 17.71875 59.46875 
Q 13.1875 52.9375 13.1875 35.296875 
z
" id="ArialMT-48"/>
       </defs>
       <use xlink:href="#ArialMT-48"/>
       <use x="55.615234" xlink:href="#ArialMT-46"/>
       <use x="83.398438" xlink:href="#ArialMT-48"/>
      </g>
     </g>
    </g>
    <g id="ytick_2">
     <g id="line2d_10">
      <g>
       <use style="fill:#262626;stroke:#262626;stroke-width:1.25;" x="46.964375" xlink:href="#mee0ffe1527" y="228.576797"/>
      </g>
     </g>
     <g id="text_11">
      <!-- 0.1 -->
      <g style="fill:#262626;" transform="translate(22.174375 232.513594)scale(0.11 -0.11)">
       <defs>
        <path d="M 37.25 0 
L 28.46875 0 
L 28.46875 56 
Q 25.296875 52.984375 20.140625 49.953125 
Q 14.984375 46.921875 10.890625 45.40625 
L 10.890625 53.90625 
Q 18.265625 57.375 23.78125 62.296875 
Q 29.296875 67.234375 31.59375 71.875 
L 37.25 71.875 
z
" id="ArialMT-49"/>
       </defs>
       <use xlink:href="#ArialMT-48"/>
       <use x="55.615234" xlink:href="#ArialMT-46"/>
       <use x="83.398438" xlink:href="#ArialMT-49"/>
      </g>
     </g>
    </g>
    <g id="ytick_3">
     <g id="line2d_11">
      <g>
       <use style="fill:#262626;stroke:#262626;stroke-width:1.25;" x="46.964375" xlink:href="#mee0ffe1527" y="174.216797"/>
      </g>
     </g>
     <g id="text_12">
      <!-- 0.2 -->
      <g style="fill:#262626;" transform="translate(22.174375 178.153594)scale(0.11 -0.11)">
       <defs>
        <path d="M 50.34375 8.453125 
L 50.34375 0 
L 3.03125 0 
Q 2.9375 3.171875 4.046875 6.109375 
Q 5.859375 10.9375 9.828125 15.625 
Q 13.8125 20.3125 21.34375 26.46875 
Q 33.015625 36.03125 37.109375 41.625 
Q 41.21875 47.21875 41.21875 52.203125 
Q 41.21875 57.421875 37.46875 61 
Q 33.734375 64.59375 27.734375 64.59375 
Q 21.390625 64.59375 17.578125 60.78125 
Q 13.765625 56.984375 13.71875 50.25 
L 4.6875 51.171875 
Q 5.609375 61.28125 11.65625 66.578125 
Q 17.71875 71.875 27.9375 71.875 
Q 38.234375 71.875 44.234375 66.15625 
Q 50.25 60.453125 50.25 52 
Q 50.25 47.703125 48.484375 43.546875 
Q 46.734375 39.40625 42.65625 34.8125 
Q 38.578125 30.21875 29.109375 22.21875 
Q 21.1875 15.578125 18.9375 13.203125 
Q 16.703125 10.84375 15.234375 8.453125 
z
" id="ArialMT-50"/>
       </defs>
       <use xlink:href="#ArialMT-48"/>
       <use x="55.615234" xlink:href="#ArialMT-46"/>
       <use x="83.398438" xlink:href="#ArialMT-50"/>
      </g>
     </g>
    </g>
    <g id="ytick_4">
     <g id="line2d_12">
      <g>
       <use style="fill:#262626;stroke:#262626;stroke-width:1.25;" x="46.964375" xlink:href="#mee0ffe1527" y="119.856797"/>
      </g>
     </g>
     <g id="text_13">
      <!-- 0.3 -->
      <g style="fill:#262626;" transform="translate(22.174375 123.793594)scale(0.11 -0.11)">
       <defs>
        <path d="M 4.203125 18.890625 
L 12.984375 20.0625 
Q 14.5 12.59375 18.140625 9.296875 
Q 21.78125 6 27 6 
Q 33.203125 6 37.46875 10.296875 
Q 41.75 14.59375 41.75 20.953125 
Q 41.75 27 37.796875 30.921875 
Q 33.84375 34.859375 27.734375 34.859375 
Q 25.25 34.859375 21.53125 33.890625 
L 22.515625 41.609375 
Q 23.390625 41.5 23.921875 41.5 
Q 29.546875 41.5 34.03125 44.421875 
Q 38.53125 47.359375 38.53125 53.46875 
Q 38.53125 58.296875 35.25 61.46875 
Q 31.984375 64.65625 26.8125 64.65625 
Q 21.6875 64.65625 18.265625 61.421875 
Q 14.84375 58.203125 13.875 51.765625 
L 5.078125 53.328125 
Q 6.6875 62.15625 12.390625 67.015625 
Q 18.109375 71.875 26.609375 71.875 
Q 32.46875 71.875 37.390625 69.359375 
Q 42.328125 66.84375 44.9375 62.5 
Q 47.5625 58.15625 47.5625 53.265625 
Q 47.5625 48.640625 45.0625 44.828125 
Q 42.578125 41.015625 37.703125 38.765625 
Q 44.046875 37.3125 47.5625 32.6875 
Q 51.078125 28.078125 51.078125 21.140625 
Q 51.078125 11.765625 44.234375 5.25 
Q 37.40625 -1.265625 26.953125 -1.265625 
Q 17.53125 -1.265625 11.296875 4.34375 
Q 5.078125 9.96875 4.203125 18.890625 
z
" id="ArialMT-51"/>
       </defs>
       <use xlink:href="#ArialMT-48"/>
       <use x="55.615234" xlink:href="#ArialMT-46"/>
       <use x="83.398438" xlink:href="#ArialMT-51"/>
      </g>
     </g>
    </g>
    <g id="ytick_5">
     <g id="line2d_13">
      <g>
       <use style="fill:#262626;stroke:#262626;stroke-width:1.25;" x="46.964375" xlink:href="#mee0ffe1527" y="65.496797"/>
      </g>
     </g>
     <g id="text_14">
      <!-- 0.4 -->
      <g style="fill:#262626;" transform="translate(22.174375 69.433594)scale(0.11 -0.11)">
       <defs>
        <path d="M 32.328125 0 
L 32.328125 17.140625 
L 1.265625 17.140625 
L 1.265625 25.203125 
L 33.9375 71.578125 
L 41.109375 71.578125 
L 41.109375 25.203125 
L 50.78125 25.203125 
L 50.78125 17.140625 
L 41.109375 17.140625 
L 41.109375 0 
z
M 32.328125 25.203125 
L 32.328125 57.46875 
L 9.90625 25.203125 
z
" id="ArialMT-52"/>
       </defs>
       <use xlink:href="#ArialMT-48"/>
       <use x="55.615234" xlink:href="#ArialMT-46"/>
       <use x="83.398438" xlink:href="#ArialMT-52"/>
      </g>
     </g>
    </g>
    <g id="ytick_6">
     <g id="line2d_14">
      <g>
       <use style="fill:#262626;stroke:#262626;stroke-width:1.25;" x="46.964375" xlink:href="#mee0ffe1527" y="11.136797"/>
      </g>
     </g>
     <g id="text_15">
      <!-- 0.5 -->
      <g style="fill:#262626;" transform="translate(22.174375 15.073594)scale(0.11 -0.11)">
       <defs>
        <path d="M 4.15625 18.75 
L 13.375 19.53125 
Q 14.40625 12.796875 18.140625 9.390625 
Q 21.875 6 27.15625 6 
Q 33.5 6 37.890625 10.78125 
Q 42.28125 15.578125 42.28125 23.484375 
Q 42.28125 31 38.0625 35.34375 
Q 33.84375 39.703125 27 39.703125 
Q 22.75 39.703125 19.328125 37.765625 
Q 15.921875 35.84375 13.96875 32.765625 
L 5.71875 33.84375 
L 12.640625 70.609375 
L 48.25 70.609375 
L 48.25 62.203125 
L 19.671875 62.203125 
L 15.828125 42.96875 
Q 22.265625 47.46875 29.34375 47.46875 
Q 38.71875 47.46875 45.15625 40.96875 
Q 51.609375 34.46875 51.609375 24.265625 
Q 51.609375 14.546875 45.953125 7.46875 
Q 39.0625 -1.21875 27.15625 -1.21875 
Q 17.390625 -1.21875 11.203125 4.25 
Q 5.03125 9.71875 4.15625 18.75 
z
" id="ArialMT-53"/>
       </defs>
       <use xlink:href="#ArialMT-48"/>
       <use x="55.615234" xlink:href="#ArialMT-46"/>
       <use x="83.398438" xlink:href="#ArialMT-53"/>
      </g>
     </g>
    </g>
    <g id="text_16">
     <!-- Proportion -->
     <g style="fill:#262626;" transform="translate(15.789375 174.717422)rotate(-90)scale(0.12 -0.12)">
      <use xlink:href="#ArialMT-80"/>
      <use x="66.699219" xlink:href="#ArialMT-114"/>
      <use x="100" xlink:href="#ArialMT-111"/>
      <use x="155.615234" xlink:href="#ArialMT-112"/>
      <use x="211.230469" xlink:href="#ArialMT-111"/>
      <use x="266.845703" xlink:href="#ArialMT-114"/>
      <use x="300.146484" xlink:href="#ArialMT-116"/>
      <use x="327.929688" xlink:href="#ArialMT-105"/>
      <use x="350.146484" xlink:href="#ArialMT-111"/>
      <use x="405.761719" xlink:href="#ArialMT-110"/>
     </g>
    </g>
   </g>
   <g id="patch_3">
    <path clip-path="url(#p72a6c659a1)" d="M 55.501775 268.286431 
L 71.906975 268.286431 
L 71.906975 262.528648 
L 55.501775 262.528648 
L 55.501775 268.286431 
z
" style="fill:#d4e1ee;stroke:#3a3a3a;stroke-linejoin:miter;stroke-width:1.5;"/>
   </g>
   <g id="patch_4">
    <path clip-path="url(#p72a6c659a1)" d="M 72.241775 267.478287 
L 88.646975 267.478287 
L 88.646975 264.763601 
L 72.241775 264.763601 
L 72.241775 267.478287 
z
" style="fill:#9dc2d5;stroke:#3a3a3a;stroke-linejoin:miter;stroke-width:1.5;"/>
   </g>
   <g id="patch_5">
    <path clip-path="url(#p72a6c659a1)" d="M 88.981775 254.709133 
L 105.386975 254.709133 
L 105.386975 236.196355 
L 88.981775 236.196355 
L 88.981775 254.709133 
z
" style="fill:#5a94b9;stroke:#3a3a3a;stroke-linejoin:miter;stroke-width:1.5;"/>
   </g>
   <g id="patch_6">
    <path clip-path="url(#p72a6c659a1)" d="M 105.721775 263.071671 
L 122.126975 263.071671 
L 122.126975 259.962893 
L 105.721775 259.962893 
L 105.721775 263.071671 
z
" style="fill:#296399;stroke:#3a3a3a;stroke-linejoin:miter;stroke-width:1.5;"/>
   </g>
   <g id="patch_7">
    <path clip-path="url(#p72a6c659a1)" d="M 139.201775 241.631026 
L 155.606975 241.631026 
L 155.606975 157.282676 
L 139.201775 157.282676 
L 139.201775 241.631026 
z
" style="fill:#d4e1ee;stroke:#3a3a3a;stroke-linejoin:miter;stroke-width:1.5;"/>
   </g>
   <g id="patch_8">
    <path clip-path="url(#p72a6c659a1)" d="M 155.941775 259.612197 
L 172.346975 259.612197 
L 172.346975 253.151323 
L 155.941775 253.151323 
L 155.941775 259.612197 
z
" style="fill:#9dc2d5;stroke:#3a3a3a;stroke-linejoin:miter;stroke-width:1.5;"/>
   </g>
   <g id="patch_9">
    <path clip-path="url(#p72a6c659a1)" d="M 172.681775 235.278059 
L 189.086975 235.278059 
L 189.086975 194.685416 
L 172.681775 194.685416 
L 172.681775 235.278059 
z
" style="fill:#5a94b9;stroke:#3a3a3a;stroke-linejoin:miter;stroke-width:1.5;"/>
   </g>
   <g id="patch_10">
    <path clip-path="url(#p72a6c659a1)" d="M 189.421775 67.837975 
L 205.826975 67.837975 
L 205.826975 64.509385 
L 189.421775 64.509385 
L 189.421775 67.837975 
z
" style="fill:#296399;stroke:#3a3a3a;stroke-linejoin:miter;stroke-width:1.5;"/>
   </g>
   <g id="patch_11">
    <path clip-path="url(#p72a6c659a1)" d="M 222.901775 206.380157 
L 239.306975 206.380157 
L 239.306975 188.363257 
L 222.901775 188.363257 
L 222.901775 206.380157 
z
" style="fill:#d4e1ee;stroke:#3a3a3a;stroke-linejoin:miter;stroke-width:1.5;"/>
   </g>
   <g id="patch_12">
    <path clip-path="url(#p72a6c659a1)" d="M 239.641775 178.383924 
L 256.046975 178.383924 
L 256.046975 158.073388 
L 239.641775 158.073388 
L 239.641775 178.383924 
z
" style="fill:#9dc2d5;stroke:#3a3a3a;stroke-linejoin:miter;stroke-width:1.5;"/>
   </g>
   <g id="patch_13">
    <path clip-path="url(#p72a6c659a1)" d="M 256.381775 176.984116 
L 272.786975 176.984116 
L 272.786975 163.221384 
L 256.381775 163.221384 
L 256.381775 176.984116 
z
" style="fill:#5a94b9;stroke:#3a3a3a;stroke-linejoin:miter;stroke-width:1.5;"/>
   </g>
   <g id="patch_14">
    <path clip-path="url(#p72a6c659a1)" d="M 273.121775 214.426798 
L 289.526975 214.426798 
L 289.526975 210.159643 
L 273.121775 210.159643 
L 273.121775 214.426798 
z
" style="fill:#296399;stroke:#3a3a3a;stroke-linejoin:miter;stroke-width:1.5;"/>
   </g>
   <g id="patch_15">
    <path clip-path="url(#p72a6c659a1)" d="M 306.601775 260.270309 
L 323.006975 260.270309 
L 323.006975 229.160151 
L 306.601775 229.160151 
L 306.601775 260.270309 
z
" style="fill:#d4e1ee;stroke:#3a3a3a;stroke-linejoin:miter;stroke-width:1.5;"/>
   </g>
   <g id="patch_16">
    <path clip-path="url(#p72a6c659a1)" d="M 323.341775 220.900105 
L 339.746975 220.900105 
L 339.746975 216.686642 
L 323.341775 216.686642 
L 323.341775 220.900105 
z
" style="fill:#9dc2d5;stroke:#3a3a3a;stroke-linejoin:miter;stroke-width:1.5;"/>
   </g>
   <g id="patch_17">
    <path clip-path="url(#p72a6c659a1)" d="M 340.081775 257.770312 
L 356.486975 257.770312 
L 356.486975 255.595195 
L 340.081775 255.595195 
L 340.081775 257.770312 
z
" style="fill:#5a94b9;stroke:#3a3a3a;stroke-linejoin:miter;stroke-width:1.5;"/>
   </g>
   <g id="patch_18">
    <path clip-path="url(#p72a6c659a1)" d="M 356.821775 244.405047 
L 373.226975 244.405047 
L 373.226975 244.017758 
L 356.821775 244.017758 
L 356.821775 244.405047 
z
" style="fill:#296399;stroke:#3a3a3a;stroke-linejoin:miter;stroke-width:1.5;"/>
   </g>
   <g id="patch_19">
    <path clip-path="url(#p72a6c659a1)" d="M 390.301775 183.01629 
L 406.706975 183.01629 
L 406.706975 142.345011 
L 390.301775 142.345011 
L 390.301775 183.01629 
z
" style="fill:#d4e1ee;stroke:#3a3a3a;stroke-linejoin:miter;stroke-width:1.5;"/>
   </g>
   <g id="patch_20">
    <path clip-path="url(#p72a6c659a1)" d="M 407.041775 166.560777 
L 423.446975 166.560777 
L 423.446975 160.132472 
L 407.041775 160.132472 
L 407.041775 166.560777 
z
" style="fill:#9dc2d5;stroke:#3a3a3a;stroke-linejoin:miter;stroke-width:1.5;"/>
   </g>
   <g id="patch_21">
    <path clip-path="url(#p72a6c659a1)" d="M 423.781775 211.478973 
L 440.186975 211.478973 
L 440.186975 180.556985 
L 423.781775 180.556985 
L 423.781775 211.478973 
z
" style="fill:#5a94b9;stroke:#3a3a3a;stroke-linejoin:miter;stroke-width:1.5;"/>
   </g>
   <g id="patch_22">
    <path clip-path="url(#p72a6c659a1)" d="M 440.521775 221.452078 
L 456.926975 221.452078 
L 456.926975 217.80947 
L 440.521775 217.80947 
L 440.521775 221.452078 
z
" style="fill:#296399;stroke:#3a3a3a;stroke-linejoin:miter;stroke-width:1.5;"/>
   </g>
   <g id="patch_23">
    <path clip-path="url(#p72a6c659a1)" d="M 474.001775 225.22899 
L 490.406975 225.22899 
L 490.406975 206.449251 
L 474.001775 206.449251 
L 474.001775 225.22899 
z
" style="fill:#d4e1ee;stroke:#3a3a3a;stroke-linejoin:miter;stroke-width:1.5;"/>
   </g>
   <g id="patch_24">
    <path clip-path="url(#p72a6c659a1)" d="M 490.741775 223.417718 
L 507.146975 223.417718 
L 507.146975 205.752357 
L 490.741775 205.752357 
L 490.741775 223.417718 
z
" style="fill:#9dc2d5;stroke:#3a3a3a;stroke-linejoin:miter;stroke-width:1.5;"/>
   </g>
   <g id="patch_25">
    <path clip-path="url(#p72a6c659a1)" d="M 507.481775 233.750505 
L 523.886975 233.750505 
L 523.886975 202.574118 
L 507.481775 202.574118 
L 507.481775 233.750505 
z
" style="fill:#5a94b9;stroke:#3a3a3a;stroke-linejoin:miter;stroke-width:1.5;"/>
   </g>
   <g id="patch_26">
    <path clip-path="url(#p72a6c659a1)" d="M 524.221775 250.270205 
L 540.626975 250.270205 
L 540.626975 247.252143 
L 524.221775 247.252143 
L 524.221775 250.270205 
z
" style="fill:#296399;stroke:#3a3a3a;stroke-linejoin:miter;stroke-width:1.5;"/>
   </g>
   <g id="patch_27">
    <path clip-path="url(#p72a6c659a1)" d="M 557.701775 170.927498 
L 574.106975 170.927498 
L 574.106975 150.803137 
L 557.701775 150.803137 
L 557.701775 170.927498 
z
" style="fill:#d4e1ee;stroke:#3a3a3a;stroke-linejoin:miter;stroke-width:1.5;"/>
   </g>
   <g id="patch_28">
    <path clip-path="url(#p72a6c659a1)" d="M 574.441775 197.598197 
L 590.846975 197.598197 
L 590.846975 194.325616 
L 574.441775 194.325616 
L 574.441775 197.598197 
z
" style="fill:#9dc2d5;stroke:#3a3a3a;stroke-linejoin:miter;stroke-width:1.5;"/>
   </g>
   <g id="patch_29">
    <path clip-path="url(#p72a6c659a1)" d="M 591.181775 171.039548 
L 607.586975 171.039548 
L 607.586975 169.509392 
L 591.181775 169.509392 
L 591.181775 171.039548 
z
" style="fill:#5a94b9;stroke:#3a3a3a;stroke-linejoin:miter;stroke-width:1.5;"/>
   </g>
   <g id="patch_30">
    <path clip-path="url(#p72a6c659a1)" d="M 607.921775 193.274199 
L 624.326975 193.274199 
L 624.326975 188.961685 
L 607.921775 188.961685 
L 607.921775 193.274199 
z
" style="fill:#296399;stroke:#3a3a3a;stroke-linejoin:miter;stroke-width:1.5;"/>
   </g>
   <g id="patch_31">
    <path clip-path="url(#p72a6c659a1)" d="M 641.401775 273.623298 
L 657.806975 273.623298 
L 657.806975 269.179353 
L 641.401775 269.179353 
L 641.401775 273.623298 
z
" style="fill:#d4e1ee;stroke:#3a3a3a;stroke-linejoin:miter;stroke-width:1.5;"/>
   </g>
   <g id="patch_32">
    <path clip-path="url(#p72a6c659a1)" d="M 658.141775 247.19165 
L 674.546975 247.19165 
L 674.546975 225.760499 
L 658.141775 225.760499 
L 658.141775 247.19165 
z
" style="fill:#9dc2d5;stroke:#3a3a3a;stroke-linejoin:miter;stroke-width:1.5;"/>
   </g>
   <g id="patch_33">
    <path clip-path="url(#p72a6c659a1)" d="M 674.881775 256.274992 
L 691.286975 256.274992 
L 691.286975 240.164267 
L 674.881775 240.164267 
L 674.881775 256.274992 
z
" style="fill:#5a94b9;stroke:#3a3a3a;stroke-linejoin:miter;stroke-width:1.5;"/>
   </g>
   <g id="patch_34">
    <path clip-path="url(#p72a6c659a1)" d="M 691.621775 276.248214 
L 708.026975 276.248214 
L 708.026975 276.129585 
L 691.621775 276.129585 
L 691.621775 276.248214 
z
" style="fill:#296399;stroke:#3a3a3a;stroke-linejoin:miter;stroke-width:1.5;"/>
   </g>
   <g id="patch_35">
    <path clip-path="url(#p72a6c659a1)" d="M 88.814375 282.936797 
L 88.814375 282.936797 
L 88.814375 282.936797 
L 88.814375 282.936797 
z
" style="fill:#d4e1ee;stroke:#3a3a3a;stroke-linejoin:miter;stroke-width:0.75;"/>
   </g>
   <g id="patch_36">
    <path clip-path="url(#p72a6c659a1)" d="M 88.814375 282.936797 
L 88.814375 282.936797 
L 88.814375 282.936797 
L 88.814375 282.936797 
z
" style="fill:#9dc2d5;stroke:#3a3a3a;stroke-linejoin:miter;stroke-width:0.75;"/>
   </g>
   <g id="patch_37">
    <path clip-path="url(#p72a6c659a1)" d="M 88.814375 282.936797 
L 88.814375 282.936797 
L 88.814375 282.936797 
L 88.814375 282.936797 
z
" style="fill:#5a94b9;stroke:#3a3a3a;stroke-linejoin:miter;stroke-width:0.75;"/>
   </g>
   <g id="patch_38">
    <path clip-path="url(#p72a6c659a1)" d="M 88.814375 282.936797 
L 88.814375 282.936797 
L 88.814375 282.936797 
L 88.814375 282.936797 
z
" style="fill:#296399;stroke:#3a3a3a;stroke-linejoin:miter;stroke-width:0.75;"/>
   </g>
   <g id="line2d_15">
    <path clip-path="url(#p72a6c659a1)" d="M 63.704375 268.286431 
L 63.704375 269.346797 
" style="fill:none;stroke:#3a3a3a;stroke-linecap:round;stroke-width:1.5;"/>
   </g>
   <g id="line2d_16">
    <path clip-path="url(#p72a6c659a1)" d="M 63.704375 262.528648 
L 63.704375 259.639654 
" style="fill:none;stroke:#3a3a3a;stroke-linecap:round;stroke-width:1.5;"/>
   </g>
   <g id="line2d_17">
    <path clip-path="url(#p72a6c659a1)" d="M 59.603075 269.346797 
L 67.805675 269.346797 
" style="fill:none;stroke:#3a3a3a;stroke-linecap:round;stroke-width:1.5;"/>
   </g>
   <g id="line2d_18">
    <path clip-path="url(#p72a6c659a1)" d="M 59.603075 259.639654 
L 67.805675 259.639654 
" style="fill:none;stroke:#3a3a3a;stroke-linecap:round;stroke-width:1.5;"/>
   </g>
   <g id="line2d_19"/>
   <g id="line2d_20">
    <path clip-path="url(#p72a6c659a1)" d="M 80.444375 267.478287 
L 80.444375 268.83563 
" style="fill:none;stroke:#3a3a3a;stroke-linecap:round;stroke-width:1.5;"/>
   </g>
   <g id="line2d_21">
    <path clip-path="url(#p72a6c659a1)" d="M 80.444375 264.763601 
L 80.444375 263.406258 
" style="fill:none;stroke:#3a3a3a;stroke-linecap:round;stroke-width:1.5;"/>
   </g>
   <g id="line2d_22">
    <path clip-path="url(#p72a6c659a1)" d="M 76.343075 268.83563 
L 84.545675 268.83563 
" style="fill:none;stroke:#3a3a3a;stroke-linecap:round;stroke-width:1.5;"/>
   </g>
   <g id="line2d_23">
    <path clip-path="url(#p72a6c659a1)" d="M 76.343075 263.406258 
L 84.545675 263.406258 
" style="fill:none;stroke:#3a3a3a;stroke-linecap:round;stroke-width:1.5;"/>
   </g>
   <g id="line2d_24"/>
   <g id="line2d_25">
    <path clip-path="url(#p72a6c659a1)" d="M 97.184375 254.709133 
L 97.184375 263.965522 
" style="fill:none;stroke:#3a3a3a;stroke-linecap:round;stroke-width:1.5;"/>
   </g>
   <g id="line2d_26">
    <path clip-path="url(#p72a6c659a1)" d="M 97.184375 236.196355 
L 97.184375 226.939966 
" style="fill:none;stroke:#3a3a3a;stroke-linecap:round;stroke-width:1.5;"/>
   </g>
   <g id="line2d_27">
    <path clip-path="url(#p72a6c659a1)" d="M 93.083075 263.965522 
L 101.285675 263.965522 
" style="fill:none;stroke:#3a3a3a;stroke-linecap:round;stroke-width:1.5;"/>
   </g>
   <g id="line2d_28">
    <path clip-path="url(#p72a6c659a1)" d="M 93.083075 226.939966 
L 101.285675 226.939966 
" style="fill:none;stroke:#3a3a3a;stroke-linecap:round;stroke-width:1.5;"/>
   </g>
   <g id="line2d_29"/>
   <g id="line2d_30">
    <path clip-path="url(#p72a6c659a1)" d="M 113.924375 263.071671 
L 113.924375 264.62606 
" style="fill:none;stroke:#3a3a3a;stroke-linecap:round;stroke-width:1.5;"/>
   </g>
   <g id="line2d_31">
    <path clip-path="url(#p72a6c659a1)" d="M 113.924375 259.962893 
L 113.924375 258.408504 
" style="fill:none;stroke:#3a3a3a;stroke-linecap:round;stroke-width:1.5;"/>
   </g>
   <g id="line2d_32">
    <path clip-path="url(#p72a6c659a1)" d="M 109.823075 264.62606 
L 118.025675 264.62606 
" style="fill:none;stroke:#3a3a3a;stroke-linecap:round;stroke-width:1.5;"/>
   </g>
   <g id="line2d_33">
    <path clip-path="url(#p72a6c659a1)" d="M 109.823075 258.408504 
L 118.025675 258.408504 
" style="fill:none;stroke:#3a3a3a;stroke-linecap:round;stroke-width:1.5;"/>
   </g>
   <g id="line2d_34"/>
   <g id="line2d_35">
    <path clip-path="url(#p72a6c659a1)" d="M 147.404375 241.631026 
L 147.404375 244.755368 
" style="fill:none;stroke:#3a3a3a;stroke-linecap:round;stroke-width:1.5;"/>
   </g>
   <g id="line2d_36">
    <path clip-path="url(#p72a6c659a1)" d="M 147.404375 157.282676 
L 147.404375 155.404313 
" style="fill:none;stroke:#3a3a3a;stroke-linecap:round;stroke-width:1.5;"/>
   </g>
   <g id="line2d_37">
    <path clip-path="url(#p72a6c659a1)" d="M 143.303075 244.755368 
L 151.505675 244.755368 
" style="fill:none;stroke:#3a3a3a;stroke-linecap:round;stroke-width:1.5;"/>
   </g>
   <g id="line2d_38">
    <path clip-path="url(#p72a6c659a1)" d="M 143.303075 155.404313 
L 151.505675 155.404313 
" style="fill:none;stroke:#3a3a3a;stroke-linecap:round;stroke-width:1.5;"/>
   </g>
   <g id="line2d_39"/>
   <g id="line2d_40">
    <path clip-path="url(#p72a6c659a1)" d="M 164.144375 259.612197 
L 164.144375 262.842633 
" style="fill:none;stroke:#3a3a3a;stroke-linecap:round;stroke-width:1.5;"/>
   </g>
   <g id="line2d_41">
    <path clip-path="url(#p72a6c659a1)" d="M 164.144375 253.151323 
L 164.144375 249.920886 
" style="fill:none;stroke:#3a3a3a;stroke-linecap:round;stroke-width:1.5;"/>
   </g>
   <g id="line2d_42">
    <path clip-path="url(#p72a6c659a1)" d="M 160.043075 262.842633 
L 168.245675 262.842633 
" style="fill:none;stroke:#3a3a3a;stroke-linecap:round;stroke-width:1.5;"/>
   </g>
   <g id="line2d_43">
    <path clip-path="url(#p72a6c659a1)" d="M 160.043075 249.920886 
L 168.245675 249.920886 
" style="fill:none;stroke:#3a3a3a;stroke-linecap:round;stroke-width:1.5;"/>
   </g>
   <g id="line2d_44"/>
   <g id="line2d_45">
    <path clip-path="url(#p72a6c659a1)" d="M 180.884375 235.278059 
L 180.884375 255.574381 
" style="fill:none;stroke:#3a3a3a;stroke-linecap:round;stroke-width:1.5;"/>
   </g>
   <g id="line2d_46">
    <path clip-path="url(#p72a6c659a1)" d="M 180.884375 194.685416 
L 180.884375 174.389095 
" style="fill:none;stroke:#3a3a3a;stroke-linecap:round;stroke-width:1.5;"/>
   </g>
   <g id="line2d_47">
    <path clip-path="url(#p72a6c659a1)" d="M 176.783075 255.574381 
L 184.985675 255.574381 
" style="fill:none;stroke:#3a3a3a;stroke-linecap:round;stroke-width:1.5;"/>
   </g>
   <g id="line2d_48">
    <path clip-path="url(#p72a6c659a1)" d="M 176.783075 174.389095 
L 184.985675 174.389095 
" style="fill:none;stroke:#3a3a3a;stroke-linecap:round;stroke-width:1.5;"/>
   </g>
   <g id="line2d_49"/>
   <g id="line2d_50">
    <path clip-path="url(#p72a6c659a1)" d="M 197.624375 67.837975 
L 197.624375 69.502271 
" style="fill:none;stroke:#3a3a3a;stroke-linecap:round;stroke-width:1.5;"/>
   </g>
   <g id="line2d_51">
    <path clip-path="url(#p72a6c659a1)" d="M 197.624375 64.509385 
L 197.624375 62.84509 
" style="fill:none;stroke:#3a3a3a;stroke-linecap:round;stroke-width:1.5;"/>
   </g>
   <g id="line2d_52">
    <path clip-path="url(#p72a6c659a1)" d="M 193.523075 69.502271 
L 201.725675 69.502271 
" style="fill:none;stroke:#3a3a3a;stroke-linecap:round;stroke-width:1.5;"/>
   </g>
   <g id="line2d_53">
    <path clip-path="url(#p72a6c659a1)" d="M 193.523075 62.84509 
L 201.725675 62.84509 
" style="fill:none;stroke:#3a3a3a;stroke-linecap:round;stroke-width:1.5;"/>
   </g>
   <g id="line2d_54"/>
   <g id="line2d_55">
    <path clip-path="url(#p72a6c659a1)" d="M 231.104375 206.380157 
L 231.104375 220.422797 
" style="fill:none;stroke:#3a3a3a;stroke-linecap:round;stroke-width:1.5;"/>
   </g>
   <g id="line2d_56">
    <path clip-path="url(#p72a6c659a1)" d="M 231.104375 188.363257 
L 231.104375 168.676924 
" style="fill:none;stroke:#3a3a3a;stroke-linecap:round;stroke-width:1.5;"/>
   </g>
   <g id="line2d_57">
    <path clip-path="url(#p72a6c659a1)" d="M 227.003075 220.422797 
L 235.205675 220.422797 
" style="fill:none;stroke:#3a3a3a;stroke-linecap:round;stroke-width:1.5;"/>
   </g>
   <g id="line2d_58">
    <path clip-path="url(#p72a6c659a1)" d="M 227.003075 168.676924 
L 235.205675 168.676924 
" style="fill:none;stroke:#3a3a3a;stroke-linecap:round;stroke-width:1.5;"/>
   </g>
   <g id="line2d_59"/>
   <g id="line2d_60">
    <path clip-path="url(#p72a6c659a1)" d="M 247.844375 178.383924 
L 247.844375 188.539192 
" style="fill:none;stroke:#3a3a3a;stroke-linecap:round;stroke-width:1.5;"/>
   </g>
   <g id="line2d_61">
    <path clip-path="url(#p72a6c659a1)" d="M 247.844375 158.073388 
L 247.844375 147.91812 
" style="fill:none;stroke:#3a3a3a;stroke-linecap:round;stroke-width:1.5;"/>
   </g>
   <g id="line2d_62">
    <path clip-path="url(#p72a6c659a1)" d="M 243.743075 188.539192 
L 251.945675 188.539192 
" style="fill:none;stroke:#3a3a3a;stroke-linecap:round;stroke-width:1.5;"/>
   </g>
   <g id="line2d_63">
    <path clip-path="url(#p72a6c659a1)" d="M 243.743075 147.91812 
L 251.945675 147.91812 
" style="fill:none;stroke:#3a3a3a;stroke-linecap:round;stroke-width:1.5;"/>
   </g>
   <g id="line2d_64"/>
   <g id="line2d_65">
    <path clip-path="url(#p72a6c659a1)" d="M 264.584375 176.984116 
L 264.584375 183.865482 
" style="fill:none;stroke:#3a3a3a;stroke-linecap:round;stroke-width:1.5;"/>
   </g>
   <g id="line2d_66">
    <path clip-path="url(#p72a6c659a1)" d="M 264.584375 163.221384 
L 264.584375 156.340018 
" style="fill:none;stroke:#3a3a3a;stroke-linecap:round;stroke-width:1.5;"/>
   </g>
   <g id="line2d_67">
    <path clip-path="url(#p72a6c659a1)" d="M 260.483075 183.865482 
L 268.685675 183.865482 
" style="fill:none;stroke:#3a3a3a;stroke-linecap:round;stroke-width:1.5;"/>
   </g>
   <g id="line2d_68">
    <path clip-path="url(#p72a6c659a1)" d="M 260.483075 156.340018 
L 268.685675 156.340018 
" style="fill:none;stroke:#3a3a3a;stroke-linecap:round;stroke-width:1.5;"/>
   </g>
   <g id="line2d_69"/>
   <g id="line2d_70">
    <path clip-path="url(#p72a6c659a1)" d="M 281.324375 214.426798 
L 281.324375 216.560376 
" style="fill:none;stroke:#3a3a3a;stroke-linecap:round;stroke-width:1.5;"/>
   </g>
   <g id="line2d_71">
    <path clip-path="url(#p72a6c659a1)" d="M 281.324375 210.159643 
L 281.324375 208.026065 
" style="fill:none;stroke:#3a3a3a;stroke-linecap:round;stroke-width:1.5;"/>
   </g>
   <g id="line2d_72">
    <path clip-path="url(#p72a6c659a1)" d="M 277.223075 216.560376 
L 285.425675 216.560376 
" style="fill:none;stroke:#3a3a3a;stroke-linecap:round;stroke-width:1.5;"/>
   </g>
   <g id="line2d_73">
    <path clip-path="url(#p72a6c659a1)" d="M 277.223075 208.026065 
L 285.425675 208.026065 
" style="fill:none;stroke:#3a3a3a;stroke-linecap:round;stroke-width:1.5;"/>
   </g>
   <g id="line2d_74"/>
   <g id="line2d_75">
    <path clip-path="url(#p72a6c659a1)" d="M 314.804375 260.270309 
L 314.804375 262.162275 
" style="fill:none;stroke:#3a3a3a;stroke-linecap:round;stroke-width:1.5;"/>
   </g>
   <g id="line2d_76">
    <path clip-path="url(#p72a6c659a1)" d="M 314.804375 229.160151 
L 314.804375 228.576797 
" style="fill:none;stroke:#3a3a3a;stroke-linecap:round;stroke-width:1.5;"/>
   </g>
   <g id="line2d_77">
    <path clip-path="url(#p72a6c659a1)" d="M 310.703075 262.162275 
L 318.905675 262.162275 
" style="fill:none;stroke:#3a3a3a;stroke-linecap:round;stroke-width:1.5;"/>
   </g>
   <g id="line2d_78">
    <path clip-path="url(#p72a6c659a1)" d="M 310.703075 228.576797 
L 318.905675 228.576797 
" style="fill:none;stroke:#3a3a3a;stroke-linecap:round;stroke-width:1.5;"/>
   </g>
   <g id="line2d_79"/>
   <g id="line2d_80">
    <path clip-path="url(#p72a6c659a1)" d="M 331.544375 220.900105 
L 331.544375 223.006836 
" style="fill:none;stroke:#3a3a3a;stroke-linecap:round;stroke-width:1.5;"/>
   </g>
   <g id="line2d_81">
    <path clip-path="url(#p72a6c659a1)" d="M 331.544375 216.686642 
L 331.544375 214.579911 
" style="fill:none;stroke:#3a3a3a;stroke-linecap:round;stroke-width:1.5;"/>
   </g>
   <g id="line2d_82">
    <path clip-path="url(#p72a6c659a1)" d="M 327.443075 223.006836 
L 335.645675 223.006836 
" style="fill:none;stroke:#3a3a3a;stroke-linecap:round;stroke-width:1.5;"/>
   </g>
   <g id="line2d_83">
    <path clip-path="url(#p72a6c659a1)" d="M 327.443075 214.579911 
L 335.645675 214.579911 
" style="fill:none;stroke:#3a3a3a;stroke-linecap:round;stroke-width:1.5;"/>
   </g>
   <g id="line2d_84"/>
   <g id="line2d_85">
    <path clip-path="url(#p72a6c659a1)" d="M 348.284375 257.770312 
L 348.284375 258.857871 
" style="fill:none;stroke:#3a3a3a;stroke-linecap:round;stroke-width:1.5;"/>
   </g>
   <g id="line2d_86">
    <path clip-path="url(#p72a6c659a1)" d="M 348.284375 255.595195 
L 348.284375 254.507637 
" style="fill:none;stroke:#3a3a3a;stroke-linecap:round;stroke-width:1.5;"/>
   </g>
   <g id="line2d_87">
    <path clip-path="url(#p72a6c659a1)" d="M 344.183075 258.857871 
L 352.385675 258.857871 
" style="fill:none;stroke:#3a3a3a;stroke-linecap:round;stroke-width:1.5;"/>
   </g>
   <g id="line2d_88">
    <path clip-path="url(#p72a6c659a1)" d="M 344.183075 254.507637 
L 352.385675 254.507637 
" style="fill:none;stroke:#3a3a3a;stroke-linecap:round;stroke-width:1.5;"/>
   </g>
   <g id="line2d_89"/>
   <g id="line2d_90">
    <path clip-path="url(#p72a6c659a1)" d="M 365.024375 244.405047 
L 365.024375 244.598692 
" style="fill:none;stroke:#3a3a3a;stroke-linecap:round;stroke-width:1.5;"/>
   </g>
   <g id="line2d_91">
    <path clip-path="url(#p72a6c659a1)" d="M 365.024375 244.017758 
L 365.024375 243.824114 
" style="fill:none;stroke:#3a3a3a;stroke-linecap:round;stroke-width:1.5;"/>
   </g>
   <g id="line2d_92">
    <path clip-path="url(#p72a6c659a1)" d="M 360.923075 244.598692 
L 369.125675 244.598692 
" style="fill:none;stroke:#3a3a3a;stroke-linecap:round;stroke-width:1.5;"/>
   </g>
   <g id="line2d_93">
    <path clip-path="url(#p72a6c659a1)" d="M 360.923075 243.824114 
L 369.125675 243.824114 
" style="fill:none;stroke:#3a3a3a;stroke-linecap:round;stroke-width:1.5;"/>
   </g>
   <g id="line2d_94"/>
   <g id="line2d_95">
    <path clip-path="url(#p72a6c659a1)" d="M 398.504375 183.01629 
L 398.504375 207.340619 
" style="fill:none;stroke:#3a3a3a;stroke-linecap:round;stroke-width:1.5;"/>
   </g>
   <g id="line2d_96">
    <path clip-path="url(#p72a6c659a1)" d="M 398.504375 142.345011 
L 398.504375 128.269654 
" style="fill:none;stroke:#3a3a3a;stroke-linecap:round;stroke-width:1.5;"/>
   </g>
   <g id="line2d_97">
    <path clip-path="url(#p72a6c659a1)" d="M 394.403075 207.340619 
L 402.605675 207.340619 
" style="fill:none;stroke:#3a3a3a;stroke-linecap:round;stroke-width:1.5;"/>
   </g>
   <g id="line2d_98">
    <path clip-path="url(#p72a6c659a1)" d="M 394.403075 128.269654 
L 402.605675 128.269654 
" style="fill:none;stroke:#3a3a3a;stroke-linecap:round;stroke-width:1.5;"/>
   </g>
   <g id="line2d_99"/>
   <g id="line2d_100">
    <path clip-path="url(#p72a6c659a1)" d="M 415.244375 166.560777 
L 415.244375 169.774929 
" style="fill:none;stroke:#3a3a3a;stroke-linecap:round;stroke-width:1.5;"/>
   </g>
   <g id="line2d_101">
    <path clip-path="url(#p72a6c659a1)" d="M 415.244375 160.132472 
L 415.244375 156.91832 
" style="fill:none;stroke:#3a3a3a;stroke-linecap:round;stroke-width:1.5;"/>
   </g>
   <g id="line2d_102">
    <path clip-path="url(#p72a6c659a1)" d="M 411.143075 169.774929 
L 419.345675 169.774929 
" style="fill:none;stroke:#3a3a3a;stroke-linecap:round;stroke-width:1.5;"/>
   </g>
   <g id="line2d_103">
    <path clip-path="url(#p72a6c659a1)" d="M 411.143075 156.91832 
L 419.345675 156.91832 
" style="fill:none;stroke:#3a3a3a;stroke-linecap:round;stroke-width:1.5;"/>
   </g>
   <g id="line2d_104"/>
   <g id="line2d_105">
    <path clip-path="url(#p72a6c659a1)" d="M 431.984375 211.478973 
L 431.984375 226.939966 
" style="fill:none;stroke:#3a3a3a;stroke-linecap:round;stroke-width:1.5;"/>
   </g>
   <g id="line2d_106">
    <path clip-path="url(#p72a6c659a1)" d="M 431.984375 180.556985 
L 431.984375 165.095992 
" style="fill:none;stroke:#3a3a3a;stroke-linecap:round;stroke-width:1.5;"/>
   </g>
   <g id="line2d_107">
    <path clip-path="url(#p72a6c659a1)" d="M 427.883075 226.939966 
L 436.085675 226.939966 
" style="fill:none;stroke:#3a3a3a;stroke-linecap:round;stroke-width:1.5;"/>
   </g>
   <g id="line2d_108">
    <path clip-path="url(#p72a6c659a1)" d="M 427.883075 165.095992 
L 436.085675 165.095992 
" style="fill:none;stroke:#3a3a3a;stroke-linecap:round;stroke-width:1.5;"/>
   </g>
   <g id="line2d_109"/>
   <g id="line2d_110">
    <path clip-path="url(#p72a6c659a1)" d="M 448.724375 221.452078 
L 448.724375 223.273382 
" style="fill:none;stroke:#3a3a3a;stroke-linecap:round;stroke-width:1.5;"/>
   </g>
   <g id="line2d_111">
    <path clip-path="url(#p72a6c659a1)" d="M 448.724375 217.80947 
L 448.724375 215.988165 
" style="fill:none;stroke:#3a3a3a;stroke-linecap:round;stroke-width:1.5;"/>
   </g>
   <g id="line2d_112">
    <path clip-path="url(#p72a6c659a1)" d="M 444.623075 223.273382 
L 452.825675 223.273382 
" style="fill:none;stroke:#3a3a3a;stroke-linecap:round;stroke-width:1.5;"/>
   </g>
   <g id="line2d_113">
    <path clip-path="url(#p72a6c659a1)" d="M 444.623075 215.988165 
L 452.825675 215.988165 
" style="fill:none;stroke:#3a3a3a;stroke-linecap:round;stroke-width:1.5;"/>
   </g>
   <g id="line2d_114"/>
   <g id="line2d_115">
    <path clip-path="url(#p72a6c659a1)" d="M 482.204375 225.22899 
L 482.204375 253.038797 
" style="fill:none;stroke:#3a3a3a;stroke-linecap:round;stroke-width:1.5;"/>
   </g>
   <g id="line2d_116">
    <path clip-path="url(#p72a6c659a1)" d="M 482.204375 206.449251 
L 482.204375 202.04394 
" style="fill:none;stroke:#3a3a3a;stroke-linecap:round;stroke-width:1.5;"/>
   </g>
   <g id="line2d_117">
    <path clip-path="url(#p72a6c659a1)" d="M 478.103075 253.038797 
L 486.305675 253.038797 
" style="fill:none;stroke:#3a3a3a;stroke-linecap:round;stroke-width:1.5;"/>
   </g>
   <g id="line2d_118">
    <path clip-path="url(#p72a6c659a1)" d="M 478.103075 202.04394 
L 486.305675 202.04394 
" style="fill:none;stroke:#3a3a3a;stroke-linecap:round;stroke-width:1.5;"/>
   </g>
   <g id="line2d_119"/>
   <g id="line2d_120">
    <path clip-path="url(#p72a6c659a1)" d="M 498.944375 223.417718 
L 498.944375 232.250398 
" style="fill:none;stroke:#3a3a3a;stroke-linecap:round;stroke-width:1.5;"/>
   </g>
   <g id="line2d_121">
    <path clip-path="url(#p72a6c659a1)" d="M 498.944375 205.752357 
L 498.944375 196.919676 
" style="fill:none;stroke:#3a3a3a;stroke-linecap:round;stroke-width:1.5;"/>
   </g>
   <g id="line2d_122">
    <path clip-path="url(#p72a6c659a1)" d="M 494.843075 232.250398 
L 503.045675 232.250398 
" style="fill:none;stroke:#3a3a3a;stroke-linecap:round;stroke-width:1.5;"/>
   </g>
   <g id="line2d_123">
    <path clip-path="url(#p72a6c659a1)" d="M 494.843075 196.919676 
L 503.045675 196.919676 
" style="fill:none;stroke:#3a3a3a;stroke-linecap:round;stroke-width:1.5;"/>
   </g>
   <g id="line2d_124"/>
   <g id="line2d_125">
    <path clip-path="url(#p72a6c659a1)" d="M 515.684375 233.750505 
L 515.684375 249.338699 
" style="fill:none;stroke:#3a3a3a;stroke-linecap:round;stroke-width:1.5;"/>
   </g>
   <g id="line2d_126">
    <path clip-path="url(#p72a6c659a1)" d="M 515.684375 202.574118 
L 515.684375 186.985924 
" style="fill:none;stroke:#3a3a3a;stroke-linecap:round;stroke-width:1.5;"/>
   </g>
   <g id="line2d_127">
    <path clip-path="url(#p72a6c659a1)" d="M 511.583075 249.338699 
L 519.785675 249.338699 
" style="fill:none;stroke:#3a3a3a;stroke-linecap:round;stroke-width:1.5;"/>
   </g>
   <g id="line2d_128">
    <path clip-path="url(#p72a6c659a1)" d="M 511.583075 186.985924 
L 519.785675 186.985924 
" style="fill:none;stroke:#3a3a3a;stroke-linecap:round;stroke-width:1.5;"/>
   </g>
   <g id="line2d_129"/>
   <g id="line2d_130">
    <path clip-path="url(#p72a6c659a1)" d="M 532.424375 250.270205 
L 532.424375 251.779236 
" style="fill:none;stroke:#3a3a3a;stroke-linecap:round;stroke-width:1.5;"/>
   </g>
   <g id="line2d_131">
    <path clip-path="url(#p72a6c659a1)" d="M 532.424375 247.252143 
L 532.424375 245.743113 
" style="fill:none;stroke:#3a3a3a;stroke-linecap:round;stroke-width:1.5;"/>
   </g>
   <g id="line2d_132">
    <path clip-path="url(#p72a6c659a1)" d="M 528.323075 251.779236 
L 536.525675 251.779236 
" style="fill:none;stroke:#3a3a3a;stroke-linecap:round;stroke-width:1.5;"/>
   </g>
   <g id="line2d_133">
    <path clip-path="url(#p72a6c659a1)" d="M 528.323075 245.743113 
L 536.525675 245.743113 
" style="fill:none;stroke:#3a3a3a;stroke-linecap:round;stroke-width:1.5;"/>
   </g>
   <g id="line2d_134"/>
   <g id="line2d_135">
    <path clip-path="url(#p72a6c659a1)" d="M 565.904375 170.927498 
L 565.904375 174.216797 
" style="fill:none;stroke:#3a3a3a;stroke-linecap:round;stroke-width:1.5;"/>
   </g>
   <g id="line2d_136">
    <path clip-path="url(#p72a6c659a1)" d="M 565.904375 150.803137 
L 565.904375 125.215016 
" style="fill:none;stroke:#3a3a3a;stroke-linecap:round;stroke-width:1.5;"/>
   </g>
   <g id="line2d_137">
    <path clip-path="url(#p72a6c659a1)" d="M 561.803075 174.216797 
L 570.005675 174.216797 
" style="fill:none;stroke:#3a3a3a;stroke-linecap:round;stroke-width:1.5;"/>
   </g>
   <g id="line2d_138">
    <path clip-path="url(#p72a6c659a1)" d="M 561.803075 125.215016 
L 570.005675 125.215016 
" style="fill:none;stroke:#3a3a3a;stroke-linecap:round;stroke-width:1.5;"/>
   </g>
   <g id="line2d_139"/>
   <g id="line2d_140">
    <path clip-path="url(#p72a6c659a1)" d="M 582.644375 197.598197 
L 582.644375 199.234487 
" style="fill:none;stroke:#3a3a3a;stroke-linecap:round;stroke-width:1.5;"/>
   </g>
   <g id="line2d_141">
    <path clip-path="url(#p72a6c659a1)" d="M 582.644375 194.325616 
L 582.644375 192.689326 
" style="fill:none;stroke:#3a3a3a;stroke-linecap:round;stroke-width:1.5;"/>
   </g>
   <g id="line2d_142">
    <path clip-path="url(#p72a6c659a1)" d="M 578.543075 199.234487 
L 586.745675 199.234487 
" style="fill:none;stroke:#3a3a3a;stroke-linecap:round;stroke-width:1.5;"/>
   </g>
   <g id="line2d_143">
    <path clip-path="url(#p72a6c659a1)" d="M 578.543075 192.689326 
L 586.745675 192.689326 
" style="fill:none;stroke:#3a3a3a;stroke-linecap:round;stroke-width:1.5;"/>
   </g>
   <g id="line2d_144"/>
   <g id="line2d_145">
    <path clip-path="url(#p72a6c659a1)" d="M 599.384375 171.039548 
L 599.384375 171.804626 
" style="fill:none;stroke:#3a3a3a;stroke-linecap:round;stroke-width:1.5;"/>
   </g>
   <g id="line2d_146">
    <path clip-path="url(#p72a6c659a1)" d="M 599.384375 169.509392 
L 599.384375 168.744314 
" style="fill:none;stroke:#3a3a3a;stroke-linecap:round;stroke-width:1.5;"/>
   </g>
   <g id="line2d_147">
    <path clip-path="url(#p72a6c659a1)" d="M 595.283075 171.804626 
L 603.485675 171.804626 
" style="fill:none;stroke:#3a3a3a;stroke-linecap:round;stroke-width:1.5;"/>
   </g>
   <g id="line2d_148">
    <path clip-path="url(#p72a6c659a1)" d="M 595.283075 168.744314 
L 603.485675 168.744314 
" style="fill:none;stroke:#3a3a3a;stroke-linecap:round;stroke-width:1.5;"/>
   </g>
   <g id="line2d_149"/>
   <g id="line2d_150">
    <path clip-path="url(#p72a6c659a1)" d="M 616.124375 193.274199 
L 616.124375 195.430455 
" style="fill:none;stroke:#3a3a3a;stroke-linecap:round;stroke-width:1.5;"/>
   </g>
   <g id="line2d_151">
    <path clip-path="url(#p72a6c659a1)" d="M 616.124375 188.961685 
L 616.124375 186.805428 
" style="fill:none;stroke:#3a3a3a;stroke-linecap:round;stroke-width:1.5;"/>
   </g>
   <g id="line2d_152">
    <path clip-path="url(#p72a6c659a1)" d="M 612.023075 195.430455 
L 620.225675 195.430455 
" style="fill:none;stroke:#3a3a3a;stroke-linecap:round;stroke-width:1.5;"/>
   </g>
   <g id="line2d_153">
    <path clip-path="url(#p72a6c659a1)" d="M 612.023075 186.805428 
L 620.225675 186.805428 
" style="fill:none;stroke:#3a3a3a;stroke-linecap:round;stroke-width:1.5;"/>
   </g>
   <g id="line2d_154"/>
   <g id="line2d_155">
    <path clip-path="url(#p72a6c659a1)" d="M 649.604375 273.623298 
L 649.604375 273.623298 
" style="fill:none;stroke:#3a3a3a;stroke-linecap:round;stroke-width:1.5;"/>
   </g>
   <g id="line2d_156">
    <path clip-path="url(#p72a6c659a1)" d="M 649.604375 269.179353 
L 649.604375 268.677019 
" style="fill:none;stroke:#3a3a3a;stroke-linecap:round;stroke-width:1.5;"/>
   </g>
   <g id="line2d_157">
    <path clip-path="url(#p72a6c659a1)" d="M 645.503075 273.623298 
L 653.705675 273.623298 
" style="fill:none;stroke:#3a3a3a;stroke-linecap:round;stroke-width:1.5;"/>
   </g>
   <g id="line2d_158">
    <path clip-path="url(#p72a6c659a1)" d="M 645.503075 268.677019 
L 653.705675 268.677019 
" style="fill:none;stroke:#3a3a3a;stroke-linecap:round;stroke-width:1.5;"/>
   </g>
   <g id="line2d_159">
    <defs>
     <path d="M -0 0.707107 
L 0.424264 0 
L 0 -0.707107 
L -0.424264 -0 
z
" id="m79d51ca74a" style="stroke:#3a3a3a;stroke-linejoin:miter;"/>
    </defs>
    <g clip-path="url(#p72a6c659a1)">
     <use style="fill:#3a3a3a;stroke:#3a3a3a;stroke-linejoin:miter;" x="649.604375" xlink:href="#m79d51ca74a" y="280.628517"/>
    </g>
   </g>
   <g id="line2d_160">
    <path clip-path="url(#p72a6c659a1)" d="M 666.344375 247.19165 
L 666.344375 257.907225 
" style="fill:none;stroke:#3a3a3a;stroke-linecap:round;stroke-width:1.5;"/>
   </g>
   <g id="line2d_161">
    <path clip-path="url(#p72a6c659a1)" d="M 666.344375 225.760499 
L 666.344375 215.044923 
" style="fill:none;stroke:#3a3a3a;stroke-linecap:round;stroke-width:1.5;"/>
   </g>
   <g id="line2d_162">
    <path clip-path="url(#p72a6c659a1)" d="M 662.243075 257.907225 
L 670.445675 257.907225 
" style="fill:none;stroke:#3a3a3a;stroke-linecap:round;stroke-width:1.5;"/>
   </g>
   <g id="line2d_163">
    <path clip-path="url(#p72a6c659a1)" d="M 662.243075 215.044923 
L 670.445675 215.044923 
" style="fill:none;stroke:#3a3a3a;stroke-linecap:round;stroke-width:1.5;"/>
   </g>
   <g id="line2d_164"/>
   <g id="line2d_165">
    <path clip-path="url(#p72a6c659a1)" d="M 683.084375 256.274992 
L 683.084375 264.330354 
" style="fill:none;stroke:#3a3a3a;stroke-linecap:round;stroke-width:1.5;"/>
   </g>
   <g id="line2d_166">
    <path clip-path="url(#p72a6c659a1)" d="M 683.084375 240.164267 
L 683.084375 232.108905 
" style="fill:none;stroke:#3a3a3a;stroke-linecap:round;stroke-width:1.5;"/>
   </g>
   <g id="line2d_167">
    <path clip-path="url(#p72a6c659a1)" d="M 678.983075 264.330354 
L 687.185675 264.330354 
" style="fill:none;stroke:#3a3a3a;stroke-linecap:round;stroke-width:1.5;"/>
   </g>
   <g id="line2d_168">
    <path clip-path="url(#p72a6c659a1)" d="M 678.983075 232.108905 
L 687.185675 232.108905 
" style="fill:none;stroke:#3a3a3a;stroke-linecap:round;stroke-width:1.5;"/>
   </g>
   <g id="line2d_169"/>
   <g id="line2d_170">
    <path clip-path="url(#p72a6c659a1)" d="M 699.824375 276.248214 
L 699.824375 276.307529 
" style="fill:none;stroke:#3a3a3a;stroke-linecap:round;stroke-width:1.5;"/>
   </g>
   <g id="line2d_171">
    <path clip-path="url(#p72a6c659a1)" d="M 699.824375 276.129585 
L 699.824375 276.070271 
" style="fill:none;stroke:#3a3a3a;stroke-linecap:round;stroke-width:1.5;"/>
   </g>
   <g id="line2d_172">
    <path clip-path="url(#p72a6c659a1)" d="M 695.723075 276.307529 
L 703.925675 276.307529 
" style="fill:none;stroke:#3a3a3a;stroke-linecap:round;stroke-width:1.5;"/>
   </g>
   <g id="line2d_173">
    <path clip-path="url(#p72a6c659a1)" d="M 695.723075 276.070271 
L 703.925675 276.070271 
" style="fill:none;stroke:#3a3a3a;stroke-linecap:round;stroke-width:1.5;"/>
   </g>
   <g id="line2d_174"/>
   <g id="line2d_175">
    <path clip-path="url(#p72a6c659a1)" d="M 55.501775 265.712311 
L 71.906975 265.712311 
" style="fill:none;stroke:#3a3a3a;stroke-linecap:round;stroke-width:1.5;"/>
   </g>
   <g id="line2d_176">
    <path clip-path="url(#p72a6c659a1)" d="M 72.241775 266.120944 
L 88.646975 266.120944 
" style="fill:none;stroke:#3a3a3a;stroke-linecap:round;stroke-width:1.5;"/>
   </g>
   <g id="line2d_177">
    <path clip-path="url(#p72a6c659a1)" d="M 88.981775 245.452744 
L 105.386975 245.452744 
" style="fill:none;stroke:#3a3a3a;stroke-linecap:round;stroke-width:1.5;"/>
   </g>
   <g id="line2d_178">
    <path clip-path="url(#p72a6c659a1)" d="M 105.721775 261.517282 
L 122.126975 261.517282 
" style="fill:none;stroke:#3a3a3a;stroke-linecap:round;stroke-width:1.5;"/>
   </g>
   <g id="line2d_179">
    <path clip-path="url(#p72a6c659a1)" d="M 139.201775 199.249188 
L 155.606975 199.249188 
" style="fill:none;stroke:#3a3a3a;stroke-linecap:round;stroke-width:1.5;"/>
   </g>
   <g id="line2d_180">
    <path clip-path="url(#p72a6c659a1)" d="M 155.941775 256.38176 
L 172.346975 256.38176 
" style="fill:none;stroke:#3a3a3a;stroke-linecap:round;stroke-width:1.5;"/>
   </g>
   <g id="line2d_181">
    <path clip-path="url(#p72a6c659a1)" d="M 172.681775 214.981738 
L 189.086975 214.981738 
" style="fill:none;stroke:#3a3a3a;stroke-linecap:round;stroke-width:1.5;"/>
   </g>
   <g id="line2d_182">
    <path clip-path="url(#p72a6c659a1)" d="M 189.421775 66.17368 
L 205.826975 66.17368 
" style="fill:none;stroke:#3a3a3a;stroke-linecap:round;stroke-width:1.5;"/>
   </g>
   <g id="line2d_183">
    <path clip-path="url(#p72a6c659a1)" d="M 222.901775 198.312323 
L 239.306975 198.312323 
" style="fill:none;stroke:#3a3a3a;stroke-linecap:round;stroke-width:1.5;"/>
   </g>
   <g id="line2d_184">
    <path clip-path="url(#p72a6c659a1)" d="M 239.641775 168.228656 
L 256.046975 168.228656 
" style="fill:none;stroke:#3a3a3a;stroke-linecap:round;stroke-width:1.5;"/>
   </g>
   <g id="line2d_185">
    <path clip-path="url(#p72a6c659a1)" d="M 256.381775 170.10275 
L 272.786975 170.10275 
" style="fill:none;stroke:#3a3a3a;stroke-linecap:round;stroke-width:1.5;"/>
   </g>
   <g id="line2d_186">
    <path clip-path="url(#p72a6c659a1)" d="M 273.121775 212.29322 
L 289.526975 212.29322 
" style="fill:none;stroke:#3a3a3a;stroke-linecap:round;stroke-width:1.5;"/>
   </g>
   <g id="line2d_187">
    <path clip-path="url(#p72a6c659a1)" d="M 306.601775 244.497128 
L 323.006975 244.497128 
" style="fill:none;stroke:#3a3a3a;stroke-linecap:round;stroke-width:1.5;"/>
   </g>
   <g id="line2d_188">
    <path clip-path="url(#p72a6c659a1)" d="M 323.341775 218.793373 
L 339.746975 218.793373 
" style="fill:none;stroke:#3a3a3a;stroke-linecap:round;stroke-width:1.5;"/>
   </g>
   <g id="line2d_189">
    <path clip-path="url(#p72a6c659a1)" d="M 340.081775 256.682754 
L 356.486975 256.682754 
" style="fill:none;stroke:#3a3a3a;stroke-linecap:round;stroke-width:1.5;"/>
   </g>
   <g id="line2d_190">
    <path clip-path="url(#p72a6c659a1)" d="M 356.821775 244.211403 
L 373.226975 244.211403 
" style="fill:none;stroke:#3a3a3a;stroke-linecap:round;stroke-width:1.5;"/>
   </g>
   <g id="line2d_191">
    <path clip-path="url(#p72a6c659a1)" d="M 390.301775 160.972488 
L 406.706975 160.972488 
" style="fill:none;stroke:#3a3a3a;stroke-linecap:round;stroke-width:1.5;"/>
   </g>
   <g id="line2d_192">
    <path clip-path="url(#p72a6c659a1)" d="M 407.041775 163.346624 
L 423.446975 163.346624 
" style="fill:none;stroke:#3a3a3a;stroke-linecap:round;stroke-width:1.5;"/>
   </g>
   <g id="line2d_193">
    <path clip-path="url(#p72a6c659a1)" d="M 423.781775 196.017979 
L 440.186975 196.017979 
" style="fill:none;stroke:#3a3a3a;stroke-linecap:round;stroke-width:1.5;"/>
   </g>
   <g id="line2d_194">
    <path clip-path="url(#p72a6c659a1)" d="M 440.521775 219.630774 
L 456.926975 219.630774 
" style="fill:none;stroke:#3a3a3a;stroke-linecap:round;stroke-width:1.5;"/>
   </g>
   <g id="line2d_195">
    <path clip-path="url(#p72a6c659a1)" d="M 474.001775 211.938372 
L 490.406975 211.938372 
" style="fill:none;stroke:#3a3a3a;stroke-linecap:round;stroke-width:1.5;"/>
   </g>
   <g id="line2d_196">
    <path clip-path="url(#p72a6c659a1)" d="M 490.741775 214.585037 
L 507.146975 214.585037 
" style="fill:none;stroke:#3a3a3a;stroke-linecap:round;stroke-width:1.5;"/>
   </g>
   <g id="line2d_197">
    <path clip-path="url(#p72a6c659a1)" d="M 507.481775 218.162312 
L 523.886975 218.162312 
" style="fill:none;stroke:#3a3a3a;stroke-linecap:round;stroke-width:1.5;"/>
   </g>
   <g id="line2d_198">
    <path clip-path="url(#p72a6c659a1)" d="M 524.221775 248.761174 
L 540.626975 248.761174 
" style="fill:none;stroke:#3a3a3a;stroke-linecap:round;stroke-width:1.5;"/>
   </g>
   <g id="line2d_199">
    <path clip-path="url(#p72a6c659a1)" d="M 557.701775 164.581788 
L 574.106975 164.581788 
" style="fill:none;stroke:#3a3a3a;stroke-linecap:round;stroke-width:1.5;"/>
   </g>
   <g id="line2d_200">
    <path clip-path="url(#p72a6c659a1)" d="M 574.441775 195.961907 
L 590.846975 195.961907 
" style="fill:none;stroke:#3a3a3a;stroke-linecap:round;stroke-width:1.5;"/>
   </g>
   <g id="line2d_201">
    <path clip-path="url(#p72a6c659a1)" d="M 591.181775 170.27447 
L 607.586975 170.27447 
" style="fill:none;stroke:#3a3a3a;stroke-linecap:round;stroke-width:1.5;"/>
   </g>
   <g id="line2d_202">
    <path clip-path="url(#p72a6c659a1)" d="M 607.921775 191.117942 
L 624.326975 191.117942 
" style="fill:none;stroke:#3a3a3a;stroke-linecap:round;stroke-width:1.5;"/>
   </g>
   <g id="line2d_203">
    <path clip-path="url(#p72a6c659a1)" d="M 641.401775 270.317511 
L 657.806975 270.317511 
" style="fill:none;stroke:#3a3a3a;stroke-linecap:round;stroke-width:1.5;"/>
   </g>
   <g id="line2d_204">
    <path clip-path="url(#p72a6c659a1)" d="M 658.141775 236.476074 
L 674.546975 236.476074 
" style="fill:none;stroke:#3a3a3a;stroke-linecap:round;stroke-width:1.5;"/>
   </g>
   <g id="line2d_205">
    <path clip-path="url(#p72a6c659a1)" d="M 674.881775 248.219629 
L 691.286975 248.219629 
" style="fill:none;stroke:#3a3a3a;stroke-linecap:round;stroke-width:1.5;"/>
   </g>
   <g id="line2d_206">
    <path clip-path="url(#p72a6c659a1)" d="M 691.621775 276.1889 
L 708.026975 276.1889 
" style="fill:none;stroke:#3a3a3a;stroke-linecap:round;stroke-width:1.5;"/>
   </g>
   <g id="patch_39">
    <path d="M 46.964375 282.936797 
L 46.964375 11.136797 
" style="fill:none;stroke:#262626;stroke-linecap:square;stroke-linejoin:miter;stroke-width:1.25;"/>
   </g>
   <g id="patch_40">
    <path d="M 716.564375 282.936797 
L 716.564375 11.136797 
" style="fill:none;stroke:#262626;stroke-linecap:square;stroke-linejoin:miter;stroke-width:1.25;"/>
   </g>
   <g id="patch_41">
    <path d="M 46.964375 282.936797 
L 716.564375 282.936797 
" style="fill:none;stroke:#262626;stroke-linecap:square;stroke-linejoin:miter;stroke-width:1.25;"/>
   </g>
   <g id="patch_42">
    <path d="M 46.964375 11.136797 
L 716.564375 11.136797 
" style="fill:none;stroke:#262626;stroke-linecap:square;stroke-linejoin:miter;stroke-width:1.25;"/>
   </g>
   <g id="legend_1">
    <g id="patch_43">
     <path d="M 834.914406 93.473672 
L 935.332375 93.473672 
Q 937.532375 93.473672 937.532375 91.273672 
L 937.532375 13.336797 
Q 937.532375 11.136797 935.332375 11.136797 
L 834.914406 11.136797 
Q 832.714406 11.136797 832.714406 13.336797 
L 832.714406 91.273672 
Q 832.714406 93.473672 834.914406 93.473672 
z
" style="fill:#ffffff;opacity:0.8;stroke:#cccccc;stroke-linejoin:miter;"/>
    </g>
    <g id="text_17">
     <!-- Condition -->
     <g style="fill:#262626;" transform="translate(859.774328 24.126172)scale(0.12 -0.12)">
      <use xlink:href="#ArialMT-67"/>
      <use x="72.216797" xlink:href="#ArialMT-111"/>
      <use x="127.832031" xlink:href="#ArialMT-110"/>
      <use x="183.447266" xlink:href="#ArialMT-100"/>
      <use x="239.0625" xlink:href="#ArialMT-105"/>
      <use x="261.279297" xlink:href="#ArialMT-116"/>
      <use x="289.0625" xlink:href="#ArialMT-105"/>
      <use x="311.279297" xlink:href="#ArialMT-111"/>
      <use x="366.894531" xlink:href="#ArialMT-110"/>
     </g>
    </g>
    <g id="patch_44">
     <path d="M 837.114406 39.884766 
L 859.114406 39.884766 
L 859.114406 32.184766 
L 837.114406 32.184766 
z
" style="fill:#d4e1ee;stroke:#3a3a3a;stroke-linejoin:miter;stroke-width:0.75;"/>
    </g>
    <g id="text_18">
     <!-- Control -->
     <g style="fill:#262626;" transform="translate(867.914406 39.884766)scale(0.11 -0.11)">
      <use xlink:href="#ArialMT-67"/>
      <use x="72.216797" xlink:href="#ArialMT-111"/>
      <use x="127.832031" xlink:href="#ArialMT-110"/>
      <use x="183.447266" xlink:href="#ArialMT-116"/>
      <use x="211.230469" xlink:href="#ArialMT-114"/>
      <use x="244.53125" xlink:href="#ArialMT-111"/>
      <use x="300.146484" xlink:href="#ArialMT-108"/>
     </g>
    </g>
    <g id="patch_45">
     <path d="M 837.114406 55.477266 
L 859.114406 55.477266 
L 859.114406 47.777266 
L 837.114406 47.777266 
z
" style="fill:#9dc2d5;stroke:#3a3a3a;stroke-linejoin:miter;stroke-width:0.75;"/>
    </g>
    <g id="text_19">
     <!-- H.poly.Day10 -->
     <g style="fill:#262626;" transform="translate(867.914406 55.477266)scale(0.11 -0.11)">
      <defs>
       <path d="M 8.015625 0 
L 8.015625 71.578125 
L 17.484375 71.578125 
L 17.484375 42.1875 
L 54.6875 42.1875 
L 54.6875 71.578125 
L 64.15625 71.578125 
L 64.15625 0 
L 54.6875 0 
L 54.6875 33.734375 
L 17.484375 33.734375 
L 17.484375 0 
z
" id="ArialMT-72"/>
       <path d="M 7.71875 0 
L 7.71875 71.578125 
L 32.375 71.578125 
Q 40.71875 71.578125 45.125 70.5625 
Q 51.265625 69.140625 55.609375 65.4375 
Q 61.28125 60.640625 64.078125 53.1875 
Q 66.890625 45.75 66.890625 36.1875 
Q 66.890625 28.03125 64.984375 21.734375 
Q 63.09375 15.4375 60.109375 11.296875 
Q 57.125 7.171875 53.578125 4.796875 
Q 50.046875 2.4375 45.046875 1.21875 
Q 40.046875 0 33.546875 0 
z
M 17.1875 8.453125 
L 32.46875 8.453125 
Q 39.546875 8.453125 43.578125 9.765625 
Q 47.609375 11.078125 50 13.484375 
Q 53.375 16.84375 55.25 22.53125 
Q 57.125 28.21875 57.125 36.328125 
Q 57.125 47.5625 53.4375 53.59375 
Q 49.75 59.625 44.484375 61.671875 
Q 40.671875 63.140625 32.234375 63.140625 
L 17.1875 63.140625 
z
" id="ArialMT-68"/>
      </defs>
      <use xlink:href="#ArialMT-72"/>
      <use x="72.216797" xlink:href="#ArialMT-46"/>
      <use x="100" xlink:href="#ArialMT-112"/>
      <use x="155.615234" xlink:href="#ArialMT-111"/>
      <use x="211.230469" xlink:href="#ArialMT-108"/>
      <use x="233.447266" xlink:href="#ArialMT-121"/>
      <use x="276.072266" xlink:href="#ArialMT-46"/>
      <use x="303.855469" xlink:href="#ArialMT-68"/>
      <use x="376.072266" xlink:href="#ArialMT-97"/>
      <use x="431.6875" xlink:href="#ArialMT-121"/>
      <use x="481.6875" xlink:href="#ArialMT-49"/>
      <use x="537.302734" xlink:href="#ArialMT-48"/>
     </g>
    </g>
    <g id="patch_46">
     <path d="M 837.114406 71.198672 
L 859.114406 71.198672 
L 859.114406 63.498672 
L 837.114406 63.498672 
z
" style="fill:#5a94b9;stroke:#3a3a3a;stroke-linejoin:miter;stroke-width:0.75;"/>
    </g>
    <g id="text_20">
     <!-- H.poly.Day3 -->
     <g style="fill:#262626;" transform="translate(867.914406 71.198672)scale(0.11 -0.11)">
      <use xlink:href="#ArialMT-72"/>
      <use x="72.216797" xlink:href="#ArialMT-46"/>
      <use x="100" xlink:href="#ArialMT-112"/>
      <use x="155.615234" xlink:href="#ArialMT-111"/>
      <use x="211.230469" xlink:href="#ArialMT-108"/>
      <use x="233.447266" xlink:href="#ArialMT-121"/>
      <use x="276.072266" xlink:href="#ArialMT-46"/>
      <use x="303.855469" xlink:href="#ArialMT-68"/>
      <use x="376.072266" xlink:href="#ArialMT-97"/>
      <use x="431.6875" xlink:href="#ArialMT-121"/>
      <use x="481.6875" xlink:href="#ArialMT-51"/>
     </g>
    </g>
    <g id="patch_47">
     <path d="M 837.114406 86.887422 
L 859.114406 86.887422 
L 859.114406 79.187422 
L 837.114406 79.187422 
z
" style="fill:#296399;stroke:#3a3a3a;stroke-linejoin:miter;stroke-width:0.75;"/>
    </g>
    <g id="text_21">
     <!-- Salm -->
     <g style="fill:#262626;" transform="translate(867.914406 86.887422)scale(0.11 -0.11)">
      <use xlink:href="#ArialMT-83"/>
      <use x="66.699219" xlink:href="#ArialMT-97"/>
      <use x="122.314453" xlink:href="#ArialMT-108"/>
      <use x="144.53125" xlink:href="#ArialMT-109"/>
     </g>
    </g>
   </g>
  </g>
 </g>
 <defs>
  <clipPath id="p72a6c659a1">
   <rect height="271.8" width="669.6" x="46.964375" y="11.136797"/>
  </clipPath>
 </defs>
</svg>
